<?xml version="1.0" encoding="UTF-8"?>
<svg id="Layer_1" data-name="Layer 1" xmlns="http://www.w3.org/2000/svg" viewBox="0 0 287 137">
  <defs>
    <style>
      .cls-1 {
        fill: #fff;
      }
    </style>
  </defs>
  <path class="cls-1" d="m78.14,29.03c-6.39-4.44-10.62,7.3-12.39,14.04,1.19.96,2.37,1.98,3.54,3.06,1.39-1.28,2.93-2.61,4.55-3.89-.06-.43-.12-.85-.17-1.27-.32-3.64-1.57-13.36,4.48-11.94Z"/>
  <path class="cls-1" d="m45.65,40.97c1.78-2.14,4.47-2.09,6.6-.63,2.05,1.29,3.78,3.21,5.38,5.18,1.23,1.57,2.37,3.24,3.47,4.95,2.8,2.08,5.56,4.36,8.3,6.88,2.5-2.3,5.35-4.72,8.32-6.94,1.09-1.69,2.22-3.34,3.44-4.89,2.76-3.41,7.81-9.07,11.98-4.55,0,0-.51-.89-.51-.89-3.86-5.2-11.82-.69-18.38,4.61,0,0,0-.02,0-.03-.7.58-1.38,1.16-2.04,1.74-.99.86-1.93,1.71-2.8,2.52-2.67-2.51-5.48-4.83-8.53-6.96-4.08-2.82-12.07-7.29-15.22-1Z"/>
  <path class="cls-1" d="m37.3,50.21c2.41-2.89,6.04-2.82,8.92-.85,2.77,1.74,5.11,4.33,7.27,7,2.29,2.93,4.42,6.1,6.37,9.35,3.23,2.72,6.39,6.58,9.54,9.67,2.86-2.81,6.18-7.15,9.61-9.83,1.93-3.2,4.02-6.31,6.28-9.2,3.73-4.6,10.56-12.25,16.19-6.15,0,0-.69-1.2-.69-1.2-6.6-8.91-22.12,3.26-31.39,11.96-3.61-3.39-7.4-6.53-11.53-9.41-5.51-3.81-16.31-9.85-20.58-1.35Z"/>
  <path class="cls-1" d="m126.89,92.37s0,.01.03-.05c0-.01,0-.02,0-.03-.02.04-.04.07-.04.08Z"/>
  <path class="cls-1" d="m121.63,45.64c-.42,1.63-.52,3.33-.35,5.03.09.89.2,1.77.38,2.59.16.83.41,1.61.71,2.19.13.27.27.44.38.56.01,0,.05-.02.11-.06.14-.08.34-.24.54-.44.4-.42.79-1.03.99-1.57.02-.05.04-.11.05-.16-.6-.79-.7-1.89-.16-2.79.71-1.18,2.24-1.57,3.43-.86.33.23.68.5.92.82.25.32.46.69.55,1,.06.16.11.34.15.49l.06.42c.04.3.03.53.01.77-.07.92-.32,1.58-.59,2.2-.56,1.2-1.29,2.17-2.26,3.06-.5.43-1.07.85-1.79,1.17-.7.32-1.68.54-2.7.35-.53-.1-1.01-.31-1.43-.57,1.03,3.16,1.82,6.39,2.33,9.68,1.16,6.9,1.24,13.38.39,19.47.18-.2.37-.39.55-.56.99-.88,2.05-1.48,3.29-1.91.63-.2,1.32-.35,2.11-.36.77-.02,1.76.17,2.62.75.87.58,1.41,1.46,1.68,2.24.23.74.31,1.44.3,2.05,1.37-4.18,2.3-8.47,2.77-12.83-.05-.09-.1-.18-.15-.26-.9-1.43-2.06-2.66-3.41-3.71-.71-.54-1.42-1.07-2.15-1.51-.72-.46-1.45-.81-2.08-.99-.29-.1-.51-.1-.67-.11,0,.02-.01.05-.03.12-.03.16-.06.41-.05.7.03.59.2,1.28.46,1.8.03.05.05.1.08.15.98.11,1.85.8,2.13,1.81.37,1.33-.4,2.71-1.73,3.08-.4.08-.83.15-1.23.1-.4-.04-.82-.14-1.11-.29-.16-.07-.32-.15-.46-.23l-.35-.25c-.25-.18-.4-.35-.57-.52-.62-.69-.93-1.32-1.19-1.94-.48-1.23-.69-2.43-.66-3.74.03-.66.12-1.36.38-2.11.25-.73.76-1.6,1.6-2.2.84-.62,1.86-.82,2.68-.81.79.04,1.48.21,2.06.43,1.17.45,2.11,1.02,2.96,1.63.87.61,1.64,1.26,2.39,1.93.51.45.98.94,1.44,1.44.24-11.85-2.91-24.01-9.86-35.51-2.69,2.22-4.75,5.08-5.53,8.28Z"/>
  <path class="cls-1" d="m129.52,90.6c-.08-.11-.08-.05-.01.01,0,0,.01.01.02.02,0,0,0-.02,0-.03Z"/>
  <path class="cls-1" d="m122.8,56.04s-.02,0-.03,0c0,0,.01.02.02.02.11.07.09.01,0-.02Z"/>
  <path class="cls-1" d="m128.16,71.79s.02,0,.02-.01c0,0-.02,0-.03,0-.13.03-.07.06,0,.02Z"/>
  <path class="cls-1" d="m124.5,53.45s0,.02,0,.03c0-.05,0-.08,0-.09,0,0,0-.01,0,.06Z"/>
  <path class="cls-1" d="m83.03,15.37s.02,0,.03.01c-.04-.03-.06-.05-.07-.05,0,0,0,0,.04.04Z"/>
  <path class="cls-1" d="m74.96,13.33c1.11,1.27,2.46,2.3,3.96,3.12.79.42,1.58.83,2.36,1.14.78.34,1.56.56,2.21.65.3.05.52.02.68,0,0-.02,0-.05,0-.12,0-.16,0-.41-.06-.7-.12-.57-.41-1.23-.74-1.7-.03-.05-.07-.09-.1-.13-.99.05-1.95-.49-2.4-1.44-.58-1.25-.03-2.74,1.22-3.32.38-.15.8-.28,1.19-.29.41-.02.83.01,1.14.11.17.04.34.1.49.16l.38.19c.27.14.45.28.64.42.72.58,1.13,1.16,1.48,1.73.67,1.14,1.07,2.29,1.25,3.59.08.66.1,1.36-.04,2.14-.13.76-.5,1.7-1.23,2.43-.19.2-.4.36-.62.51,3.17,1.4,6.21,3.1,9.07,5.04,5.46,3.65,10.28,8.19,14.31,13.35,1.07-2.68,1.8-5.56,2.02-8.38.29-3.57-.37-7.14-2.19-9.98-.9-1.43-2.06-2.66-3.41-3.71-.71-.54-1.42-1.07-2.15-1.51-.72-.46-1.45-.81-2.08-.99-.29-.1-.51-.1-.67-.11,0,.02-.01.05-.03.12-.03.16-.06.41-.05.7.03.59.2,1.28.46,1.8.03.05.05.1.08.15.98.11,1.85.8,2.13,1.81.37,1.33-.4,2.71-1.73,3.08-.4.08-.83.15-1.23.1-.4-.04-.82-.14-1.11-.29-.16-.07-.32-.15-.46-.23l-.35-.25c-.25-.18-.4-.35-.57-.52-.62-.69-.93-1.32-1.19-1.94-.48-1.23-.69-2.43-.66-3.74.03-.66.12-1.36.38-2.11.25-.73.76-1.6,1.6-2.2.73-.53,1.57-.75,2.32-.79C92.11,5.54,81.7,1.7,71.16.44c-.05,1.14-.04,2.28.05,3.39.28,3.57,1.5,6.99,3.76,9.5Z"/>
  <path class="cls-1" d="m84.22,18.23s-.01.01-.02.02c0,0,.02,0,.03,0,.12-.05.06-.07,0-.01Z"/>
  <path class="cls-1" d="m129.54,90.66s-.05,0-.12.02c-.16.02-.41.09-.67.19-.54.23-1.13.63-1.53,1.05-.04.04-.08.09-.11.13.24.96-.11,2.01-.96,2.63-1.12.81-2.68.55-3.49-.57-.06-.1-.12-.21-.18-.31-.97,4.27-2.42,8.35-4.3,12.23,3.32-.98,6.31-2.78,8.28-5.39,1.03-1.33,1.79-2.85,2.31-4.48.27-.85.52-1.71.68-2.53.18-.83.26-1.64.22-2.29,0-.3-.08-.51-.12-.66Z"/>
  <path class="cls-1" d="m102.32,18.53s.06.06.06.06c0,0,0,0-.04-.04,0,0-.02-.01-.03-.02Z"/>
  <path class="cls-1" d="m101.66,15.52s-.02,0-.03,0c-.13.03-.07.06,0,.02.01,0,.02,0,.02-.01Z"/>
  <path class="cls-1" d="m114.88,32.11c-.28,1.99-.79,3.91-1.45,5.76-.53,1.45-1.12,2.85-1.85,4.22,2.27,3.14,4.25,6.48,5.92,9.98-.02-.39-.05-.79-.06-1.18-.07-2.08.2-4.23.86-6.23,1.3-4.06,4.16-7.34,7.41-9.62-2.76-4.22-6.04-8.34-9.87-12.31-.95-.97-1.95-1.91-2.96-2.83.03.06.08.12.11.18,2.06,3.74,2.48,8.09,1.89,12.02Z"/>
  <path class="cls-1" d="m29.38,25.77s-.06.05-.07.06c0,0,0,0,.05-.03,0,0,.01-.02.02-.03Z"/>
  <path class="cls-1" d="m14.48,64.74s0-.01,0,.06c0,.01,0,.02,0,.03,0-.05,0-.08,0-.09Z"/>
  <path class="cls-1" d="m17.69,61.47c.33.23.68.5.92.82.06.07.1.15.15.23.09-6.15,1.69-12.12,4.42-17.58-2.09.97-4.07,2.18-5.82,3.59-2.79,2.24-4.94,5.17-5.75,8.45-.42,1.63-.52,3.33-.35,5.03.09.89.2,1.77.38,2.59.16.83.41,1.61.71,2.19.13.27.27.44.38.56.01,0,.05-.02.11-.06.14-.08.34-.24.54-.44.4-.42.79-1.03.99-1.57.02-.05.04-.11.05-.16-.6-.79-.69-1.89-.15-2.79.71-1.18,2.25-1.57,3.43-.86Z"/>
  <path class="cls-1" d="m116.57,109.08c-6.07,10.88-15.59,20.17-27.37,28.09,17.67-7.54,31.04-19.45,39.09-33.45-2.72,2.68-6.27,4.31-9.79,5.03-.64.14-1.28.24-1.92.33Z"/>
  <path class="cls-1" d="m12.74,67.38s.01.02.02.02c.11.07.09.01,0-.02-.01,0-.02,0-.03,0Z"/>
  <path class="cls-1" d="m25.64,33.24c1.48-.81,2.77-1.91,3.9-3.2.58-.68,1.15-1.36,1.62-2.06.49-.69.89-1.41,1.1-2.02.11-.28.13-.5.15-.66-.02,0-.05-.02-.12-.03-.15-.04-.41-.08-.69-.09-.59,0-1.29.13-1.82.36-.05.02-.1.05-.15.07-.16.98-.9,1.8-1.92,2.03-1.35.3-2.68-.55-2.98-1.9-.06-.4-.1-.84-.03-1.23.07-.4.19-.81.35-1.09.08-.15.17-.31.26-.45l.27-.33c.19-.24.37-.38.55-.54.72-.58,1.37-.85,2.01-1.08,1.26-.41,2.47-.55,3.78-.46.66.07,1.35.2,2.08.5.71.29,1.55.85,2.11,1.72.57.88.72,1.9.66,2.72-.09.78-.29,1.47-.55,2.03-.49,1.1-1.1,1.99-1.73,2.78,3.6-3.22,7.64-5.93,11.95-7.99,5.63-2.69,11.76-4.32,17.99-4.65-1.68-2.61-3.78-5.03-6.16-6.94-2.79-2.25-6.11-3.72-9.48-3.81-1.68-.06-3.36.2-4.99.73-.85.28-1.69.57-2.45.93-.78.33-1.49.75-1.99,1.16-.24.18-.37.36-.47.49.01.01.03.04.08.09.11.11.31.28.55.43.5.3,1.17.55,1.75.63.06,0,.11.01.17.02.64-.75,1.7-1.08,2.69-.75,1.31.44,2.01,1.86,1.57,3.17-.16.38-.34.77-.61,1.07-.26.31-.58.59-.86.75-.15.09-.3.18-.45.25l-.4.15c-.29.1-.51.14-.75.18-.92.12-1.61.02-2.28-.11-1.29-.3-2.4-.8-3.47-1.56-.53-.4-1.05-.87-1.52-1.5-.46-.62-.89-1.53-.92-2.57-.04-1.04.37-2,.84-2.67.1-.13.2-.22.31-.34-11.01,6.04-20.64,14.77-27.01,25.48,2.26.93,4.64,1.61,7,1.92,3.55.49,7.15.03,10.08-1.64Z"/>
  <path class="cls-1" d="m38.85,10.28s0-.02,0-.03c0,0-.01.02-.02.02-.05.13,0,.09.02,0Z"/>
  <path class="cls-1" d="m49.01,3.46c4.25.4,8.08,2.51,11,5.21,1.49,1.35,2.78,2.86,3.94,4.44,1.04,1.43,1.95,2.9,2.75,4.5.29,0,.59-.02.88-.01,2.44-.01,4.86.19,7.25.59-.94-.8-1.81-1.68-2.56-2.66-2.63-3.36-3.74-7.59-3.78-11.57-.03-1.27.05-2.53.2-3.77-8.68-.7-17.4.39-25.56,3.67,1.9-.44,3.91-.61,5.87-.4Z"/>
  <path class="cls-1" d="m32.41,25.25s0,.02.01.02c0,0,0-.02,0-.03-.03-.13-.06-.08-.02,0Z"/>
  <path class="cls-1" d="m128.85,74.78s.06.06.06.06c0,0,0,0-.04-.04,0,0-.02-.01-.03-.02Z"/>
  <path class="cls-1" d="m41.75,11.39s-.02,0-.03.01c.05,0,.08-.01.09-.02,0,0,.01,0-.06,0Z"/>
  <path class="cls-1" d="m115.39,59.65c-9.18-16.09-33.35,5.67-45.89,18.85-.03-.03-.07-.07-.1-.1-.04.04-.07.07-.1.11-5.4-5.7-11.12-11.01-17.42-15.81-7.54-5.68-22.12-14.74-28.49-3.03,3.39-4.39,8.59-4.59,13.06-1.94,4.23,2.37,7.82,5.93,11.14,9.65,2.74,3.15,5.33,6.48,7.77,9.94,3.22,4.55,3.94,10.53,1.5,15.54-1.03,2.11-2.53,3.84-4.7,4.28-13.63,2.73-29.91-12.14-32.76-27.12-.2-1.08-.35-2.15-.46-3.22-.05.14-.11.28-.17.41-.57,1.2-1.29,2.17-2.27,3.05-.5.43-1.07.84-1.79,1.17-.7.32-1.68.54-2.7.35-1.03-.19-1.87-.79-2.42-1.39-.51-.6-.87-1.22-1.1-1.79-.48-1.15-.71-2.23-.84-3.27-.15-1.05-.21-2.06-.24-3.06-.07-2.08.2-4.23.87-6.23,1.3-4.06,4.18-7.36,7.44-9.63,1.63-1.16,3.38-2.11,5.18-2.9,1.26-.55,2.53-1.02,3.85-1.41,1.62-2.73,3.51-5.3,5.64-7.68-.99.76-2.05,1.43-3.18,1.96-3.85,1.85-8.21,2.02-12.11,1.22-1.97-.39-3.86-1.01-5.67-1.77-.67-.29-1.32-.59-1.97-.91-2.77,5.07-4.82,10.55-5.96,16.37-4.11,21.13,4.05,43.64,22.15,55.74,8.06,5.39,17.13,6.65,26.87,5.87,11.92-.95,18.83-7.27,24.59-19.03.14.11,9.52-18.96,16.06-26.46,5.75-6.41,16.47-17.07,24.21-7.71Z"/>
  <path class="cls-1" d="m170.06,20.13c1.43,0,2.24-1.08,3.03-2.13.44-.58.89-1.17,1.45-1.64v16.27c0,.77-.56,1.73-1.23,2.11-.15.08-.22.26-.18.42.04.16.19.28.36.28h7.47c.17,0,.29-.13.33-.29s-.05-.35-.2-.44c-.74-.43-1.2-1.23-1.2-2.08v-16.4c.67.49,1.15,1.16,1.61,1.82.73,1.03,1.49,2.09,2.9,2.09,2.65,0,2.69-3.76,2.71-4.99,0-.16-.06-.32-.18-.44-.12-.12-.27-.18-.43-.18h-18.56c-.16,0-.31.06-.43.18-.12.12-.18.28-.18.44.01,1.23.06,4.99,2.71,4.99Z"/>
  <path class="cls-1" d="m189.71,34.63l-.19.11c-.15.08-.22.26-.18.42.04.16.19.28.36.28h7.5c.17,0,.32-.11.36-.28.04-.16-.03-.34-.18-.42l-.18-.1c-.65-.41-1.08-1.15-1.08-1.88v-15.46c0-.84.45-1.61,1.25-2.08.15-.08.22-.26.18-.42-.04-.16-.19-.28-.36-.28h-7.5c-.17,0-.3.13-.34.29-.04.16.05.35.2.43.75.43,1.21,1.23,1.21,2.09v15.43c0,.73-.42,1.47-1.06,1.87Z"/>
  <path class="cls-1" d="m200.54,35.44h3.35c.43,0,.8-.24.98-.62.18-.4.11-.87-.19-1.21-1.09-1.24-1.49-3.1-.93-4.42l.18-.44h5.43c.14,0,.27.08.32.22l1.62,3.98c.25.68.02,1.3-.58,1.61l-.36.17c-.16.07-.25.25-.21.42.04.17.19.29.37.29h8.45c.18,0,.33-.12.37-.29s-.05-.35-.21-.42l-.4-.19c-.75-.39-1.45-1.14-1.74-1.86l-7.25-17.92c-.06-.14-.2-.23-.35-.23h-.67c-.15,0-.29.09-.35.23l-6.69,16c-.42.94-1.06,1.9-1.92,2.85-.3.33-.38.79-.2,1.2.18.4.56.65,1,.65Zm4.15-8.48l1.8-4.3c.08-.2.26-.21.32-.21h0c.05,0,.24.02.32.22l1.74,4.3c.04.11.03.23-.03.32-.07.1-.17.15-.29.15h-3.54c-.12,0-.22-.06-.29-.15-.07-.1-.08-.22-.03-.33Z"/>
  <path class="cls-1" d="m221.48,34.73c-.16.08-.24.25-.2.42.04.17.19.29.37.29h7.5c.17,0,.32-.11.36-.28.04-.16-.03-.34-.18-.42-.77-.44-1.25-1.27-1.25-2.17v-6.75l.03-.04,4.81,7.38c.17.25.22.5.17.74-.06.27-.27.52-.57.7l-.25.14c-.15.08-.22.26-.18.42.04.17.19.28.36.28h8.83c.18,0,.33-.12.37-.3.04-.17-.05-.35-.22-.42l-.63-.27c-.71-.33-1.46-1-1.9-1.69l-7.27-11.49c1.76-2.04,4.26-4.08,6.68-5.45.28-.16.41-.47.33-.77-.08-.31-.35-.52-.67-.52h-5.61c-.22,0-.42.1-.54.28-.13.18-.17.43-.09.65.55,1.58-.55,4.17-1.92,5.91l-1.75,2.27v-6.28c0-.87.47-1.68,1.25-2.13.15-.08.22-.26.18-.42-.04-.16-.19-.28-.36-.28h-7.5c-.17,0-.32.11-.36.28-.04.16.03.34.18.42.68.39,1.25,1.38,1.25,2.17v15.19c0,.89-.48,1.72-1.24,2.16Z"/>
  <path class="cls-1" d="m243.99,34.63l-.19.11c-.15.08-.22.26-.17.42s.19.28.36.28h7.5c.17,0,.32-.11.36-.28.04-.16-.03-.34-.18-.42l-.18-.1c-.65-.41-1.07-1.15-1.07-1.88v-15.41c0-.87.47-1.68,1.26-2.13.15-.08.22-.26.17-.42s-.19-.28-.36-.28h-7.5c-.17,0-.32.11-.36.28-.04.16.03.34.18.42.77.44,1.26,1.27,1.26,2.17v15.37c0,.73-.42,1.47-1.06,1.87Z"/>
  <path class="cls-1" d="m180.58,44.19c.35-.11.83-.08,1.16.37.63.87,1.36,1.71,2.63,1.71,2.29,0,2.55-2.75,2.64-3.66.05-.49-.12-.99-.46-1.36-.34-.38-.83-.59-1.34-.59h-16.06c-.51,0-.99.22-1.34.59-.34.37-.5.87-.46,1.36.09.9.35,3.66,2.64,3.66,1.25,0,2.01-.83,2.63-1.6.34-.43.82-.45,1.16-.34.34.12.7.44.7.99v13.44c0,.77-.56,1.73-1.23,2.11-.15.08-.22.26-.18.42.04.16.19.28.36.28h7.47c.17,0,.29-.13.33-.29s-.05-.35-.2-.44c-.74-.43-1.2-1.23-1.2-2.08v-13.58c0-.56.37-.88.72-1Z"/>
  <path class="cls-1" d="m185.33,60.91c.19.41.58.67,1.04.67h3.09c.46,0,.86-.26,1.05-.68.19-.4.12-.86-.16-1.19-1.07-1.24-1.44-3.09-.9-4.39l.18-.44h5.39c.16,0,.31.1.37.25l1.61,3.95c.25.68.02,1.3-.58,1.61l-.36.17c-.16.07-.25.25-.21.42.04.17.19.29.37.29h8.45c.18,0,.33-.12.37-.29s-.05-.35-.21-.42l-.4-.19c-.75-.39-1.45-1.14-1.74-1.86l-7.25-17.92c-.06-.14-.2-.23-.35-.23h-.67c-.15,0-.29.09-.35.23l-6.69,16c-.4.91-1.02,1.84-1.84,2.76-.31.35-.39.83-.2,1.26Zm5.1-7.88l1.71-4.1c.1-.23.31-.25.37-.25.09,0,.28.02.37.25l1.66,4.1c.05.13.04.26-.04.37-.08.11-.2.18-.33.18h-3.38c-.14,0-.26-.06-.33-.18-.08-.11-.09-.25-.04-.38Z"/>
  <path class="cls-1" d="m205.15,51.12c0,6.42,4.11,10.74,10.24,10.74s10.13-4.3,10.13-10.71-4.09-10.79-10.18-10.79-10.18,4.33-10.18,10.77Zm14.7.03c0,5.8-1.71,9.4-4.46,9.4s-4.6-3.62-4.6-9.46,1.75-9.4,4.57-9.4,4.49,3.62,4.49,9.46Z"/>
  <path class="cls-1" d="m238.22,41.23c-.09.34.06.68.36.85,2.2,1.21,3.51,3.09,3.51,5.01l-.02,4.87-7.49-10.97c-.14-.21-.38-.33-.63-.33h-6.71c-.17,0-.32.11-.36.28-.04.16.03.34.18.42.77.44,1.26,1.27,1.26,2.17v13.07c0,1.36-.37,2.97-.87,3.83-.14.24-.14.54,0,.77.14.24.38.38.66.38h4.69c.35,0,.65-.23.74-.57.09-.34-.06-.68-.36-.85-2.16-1.19-3.5-3.11-3.5-5.01l.02-12.04,12.49,18.3c.07.1.19.16.31.16h.58c.21,0,.38-.17.38-.38v-15.56c0-1.38.35-2.99.84-3.84.14-.24.14-.54,0-.78-.14-.23-.38-.37-.65-.37h-4.66c-.35,0-.65.23-.74.57Z"/>
  <path class="cls-1" d="m247.59,51.29c0,6.22,3.34,10.57,8.13,10.57,1.18,0,2.29-.27,3.37-.54.97-.24,1.89-.46,2.77-.46s1.55.2,2.19.61l.17-.26-.17.27c.11.1.27.13.41.08.14-.06.23-.19.23-.35v-7.82c0-2.15-1.75-3.89-3.89-3.89h-2.74c-.86,0-1.61.55-1.88,1.36l-.58,1.79c-.05.14,0,.3.11.4.12.1.28.12.42.05.88-.45,1.69-.5,2.28-.14.59.36.92,1.1.92,2.09v3.14c-.26.05-.51.06-.65.06-3.75,0-5.71-5.08-5.71-10.1,0-3.78,1.04-6.32,2.6-6.32.99,0,1.33.99,1.81,2.6.55,1.87,1.25,4.2,4,4.2,1.88,0,3.04-1.11,3.04-2.9,0-3.01-3.28-5.38-7.46-5.38-5.59,0-9.35,4.39-9.35,10.93Z"/>
  <path class="cls-1" d="m286.62,60.87l-.4-.19c-.75-.39-1.45-1.14-1.74-1.86l-7.25-17.92c-.06-.14-.2-.23-.35-.23h-.67c-.15,0-.29.09-.35.23l-6.69,16c-.23.53-.55,1.08-.94,1.63-.42.6-.48,1.38-.14,2.03.34.65.98,1.04,1.71,1.04.68,0,1.3-.35,1.66-.93.35-.57.38-1.27.07-1.87-.59-1.15-.7-2.48-.28-3.46l.18-.44h4.87c.49,0,.92.29,1.1.74l1.41,3.46c.25.68.02,1.3-.58,1.61l-.36.17c-.16.07-.25.25-.21.42.04.17.19.29.37.29h8.45c.18,0,.33-.12.37-.29.04-.17-.05-.35-.21-.42Zm-10.83-7.81c-.22.33-.58.52-.98.52h-1.03c-.4,0-.76-.19-.99-.53-.22-.34-.26-.74-.11-1.12l.52-1.25c.22-.54.71-.73,1.1-.73h0c.38,0,.87.2,1.09.74l.51,1.25c.15.37.11.78-.12,1.11Z"/>
  <path class="cls-1" d="m187.13,68.31c0-.21-.17-.38-.38-.38h-19.03c-.21,0-.38.17-.38.38,0,1.29,0,5.24,2.71,5.24,1.42,0,2.24-1.08,3.03-2.13.44-.58.89-1.18,1.45-1.64v16.4c0,.75-.42,1.5-1.03,1.87l-.19.11c-.15.08-.22.26-.18.42s.19.28.36.28h7.47c.17,0,.32-.11.36-.28.04-.16-.03-.34-.18-.42l-.19-.11c-.63-.37-1.07-1.14-1.07-1.87v-16.53c.67.49,1.15,1.16,1.61,1.82.73,1.03,1.49,2.09,2.9,2.09,2.71,0,2.71-3.94,2.71-5.24Z"/>
  <path class="cls-1" d="m207.81,87.49c-.63-.36-1.4-1.16-1.81-1.87l-3.29-5.51c-.12-.21-.35-.34-.6-.34h-2.42c-.41,0-.81-.05-1.2-.14h3.08c3.48,0,5.82-2.33,5.82-5.79s-2.34-5.9-5.82-5.9h-11.86c-.17,0-.3.12-.35.29-.04.16.04.35.19.43.76.43,1.22,1.24,1.22,2.11v15.27c0,.87-.47,1.68-1.26,2.13-.15.09-.21.26-.17.42.04.16.19.28.36.28h7.5c.17,0,.32-.11.36-.28s-.03-.34-.18-.42c-.77-.44-1.26-1.28-1.26-2.17v-6.36l3.97,6.59c.92,1.57,2.8,2.63,4.69,2.63h3.94c.17,0,.32-.11.36-.27.04-.16-.02-.33-.17-.42l-1.12-.67Zm-11.68-9.19l-.05-9.06h1.07c1.41,0,2.75.6,3.69,1.66.89,1,1.29,2.26,1.14,3.55-.28,2.38-1.99,3.85-4.45,3.85h-1.41Z"/>
  <path class="cls-1" d="m226.71,80.93v-8.58c0-1.39.47-2.71.9-3.35.14-.21.16-.47.04-.69-.12-.23-.35-.37-.61-.37h-5.27c-.32,0-.58.21-.66.51-.08.31.06.62.34.77,1.47.79,3.93,2.52,3.93,5.15v7.11c0,3.16-2.12,5.46-5.04,5.46s-4.88-2.13-4.88-5.18v-10.96c0-.78.58-1.77,1.26-2.16.15-.08.22-.26.18-.42-.04-.17-.19-.28-.36-.28h-7.5c-.17,0-.32.11-.36.28-.04.16.03.34.18.42.68.39,1.26,1.38,1.26,2.16v10.13c0,4.91,3.33,8.21,8.29,8.21s8.32-3.3,8.32-8.21Z"/>
  <path class="cls-1" d="m239.37,76.23c-2.62-1.43-5.1-2.78-5.1-5.25,0-.72.19-1.93,1.49-1.93s1.66,1.07,2.25,2.81c.6,1.8,1.35,4.05,4.03,4.05,1.88,0,3.04-1.11,3.04-2.9,0-3.06-3.41-5.38-7.93-5.38s-7.62,2.42-7.62,6.01,3.26,5.29,6.13,6.74c2.56,1.29,4.98,2.51,4.98,4.91,0,1.4-.84,2.38-2.04,2.38-1.27,0-1.7-1.06-2.3-2.8-.61-1.77-1.37-3.98-4.04-3.98-1.86,0-3.01,1.11-3.01,2.9,0,3.05,3.4,5.35,7.91,5.35,4.76,0,8.21-2.61,8.21-6.21s-3.04-5.1-5.98-6.7Z"/>
  <path class="cls-1" d="m265.6,67.94h-18.57c-.16,0-.31.06-.43.18-.11.12-.18.28-.18.44.01,1.24.06,5,2.71,5,1.43,0,2.24-1.08,3.03-2.13.44-.58.89-1.17,1.45-1.64v16.27c0,.76-.56,1.73-1.23,2.11-.15.08-.22.26-.18.42.04.17.19.28.36.28h7.47c.17,0,.32-.11.36-.28.04-.16-.03-.34-.17-.42,0,0-.08-.05-.08-.05-.72-.42-1.17-1.19-1.17-2.03v-16.43c.67.49,1.15,1.16,1.62,1.82.73,1.03,1.49,2.08,2.9,2.08,2.65,0,2.69-3.76,2.71-5,0-.16-.06-.32-.18-.44-.11-.12-.26-.18-.42-.18Z"/>
  <path class="cls-1" d="m178.39,104.26c-.27,1.09-.52,2.06-.7,3.02h-.03c-.13-.92-.36-1.96-.61-2.99l-1.06-4.43h-1.18l-1.17,4.4c-.3,1.13-.57,2.16-.71,3.03h-.03c-.16-.84-.39-1.93-.65-3.02l-1.04-4.42h-1.19l2.22,8.73h1.18l1.24-4.55c.32-1.13.52-1.98.67-2.85h.03c.12.88.3,1.74.57,2.85l1.1,4.55h1.18l2.47-8.73h-1.15l-1.15,4.4Z"/>
  <path class="cls-1" d="m187.95,99.85l-2.97,8.73h1.17l.91-2.75h3.1l.93,2.75h1.21l-2.98-8.73h-1.36Zm-.66,5.1l.86-2.53c.17-.53.31-1.06.44-1.58h.03c.13.51.26,1.02.45,1.59l.85,2.51h-2.63Z"/>
  <rect class="cls-1" x="198.18" y="99.85" width="1.13" height="8.73"/>
  <path class="cls-1" d="m214.43,107.61l.67-.62c1.78-1.71,2.9-2.97,2.9-4.52,0-1.21-.76-2.45-2.58-2.45-.97,0-1.8.36-2.38.86l.36.8c.39-.32,1.02-.71,1.79-.71,1.26,0,1.67.79,1.67,1.65-.01,1.27-.98,2.36-3.13,4.4l-.89.87v.7h5.38v-.95h-3.78v-.03Z"/>
  <path class="cls-1" d="m227.19,103.04c-.93,0-1.63.44-2.03.97h-.04c.19-1.39,1.14-2.69,2.93-2.99.32-.05.62-.06.85-.05v-.93c-.21,0-.49.01-.83.06-1.06.13-2,.56-2.7,1.24-.83.83-1.42,2.14-1.42,3.79,0,2.19,1.18,3.59,2.98,3.59s2.8-1.42,2.8-2.97c0-1.65-1.05-2.72-2.54-2.72Zm-.26,4.81c-1.19,0-1.83-1.02-1.85-2.41,0-.21.05-.38.13-.5.31-.61.95-1.04,1.63-1.04,1.05,0,1.74.73,1.74,1.93s-.66,2.02-1.65,2.02Z"/>
  <path class="cls-1" d="m236.93,107.61l.67-.62c1.78-1.71,2.9-2.97,2.9-4.52,0-1.21-.76-2.45-2.58-2.45-.97,0-1.8.36-2.38.86l.36.8c.39-.32,1.02-.71,1.79-.71,1.26,0,1.67.79,1.67,1.65-.01,1.27-.99,2.36-3.14,4.4l-.89.87v.7h5.38v-.95h-3.78v-.03Z"/>
</svg>