<svg width="147" height="72" viewBox="0 0 147 72" fill="none" xmlns="http://www.w3.org/2000/svg">
<path d="M55.1594 12.7862C53.3773 12.2288 51.6323 13.9569 52.7206 15.6823C52.8451 15.2523 53.0966 14.8541 53.4832 14.5674C54.4259 13.8613 55.7578 14.0551 56.4622 15.0001C57.1666 15.9451 56.9733 17.2803 56.0306 17.9864C55.6149 18.297 55.125 18.4244 54.6431 18.3978C55.4745 19.2712 56.253 20.1923 56.9839 21.1506C57.5346 20.4975 57.9716 19.7861 58.1675 19.0349C58.7368 16.8954 58.2575 13.7551 55.1594 12.7889V12.7862Z" fill="white"/>
<path d="M5.90021 31.3662C4.67155 33.1288 4.07046 36.1496 6.57809 38.0661C8.01858 39.1651 10.182 38.1696 9.76094 36.2345C9.50409 36.5849 9.14397 36.8636 8.69646 36.999C7.60285 37.3282 6.45098 36.7097 6.12263 35.6134C5.79429 34.5171 6.41126 33.3623 7.50487 33.0332C8.10067 32.8527 8.7097 32.9642 9.19693 33.2721C9.29225 33.2907 9.38758 33.3252 9.47232 33.373C9.422 31.8519 9.55175 30.3468 9.84038 28.8789C8.33369 29.3939 6.73167 30.161 5.89756 31.3662H5.90021Z" fill="white"/>
<path d="M10.6047 9.90887C11.7724 10.2885 12.4106 11.544 12.0346 12.712C11.6559 13.8826 10.4034 14.5224 9.23833 14.1428C8.60281 13.9357 8.13147 13.4659 7.88786 12.8925C7.78989 12.7916 7.68926 12.6642 7.65749 12.5342C7.63895 12.4758 7.62571 12.42 7.60982 12.3616C6.51886 13.6278 5.52058 14.9683 4.63086 16.3779C6.2779 16.8477 8.16325 17.153 9.63817 16.6008C11.7989 15.7965 14.1768 13.4951 13.1308 10.2646C12.8369 9.35408 12.0796 8.78602 11.2905 8.67188C10.8642 9.0435 10.4432 9.42044 10.0354 9.81065C10.226 9.81862 10.4167 9.84516 10.6073 9.90621L10.6047 9.90887Z" fill="white"/>
<path d="M32.3557 17.5253C32.3557 17.4723 32.3477 17.4192 32.3451 17.3661C32.3451 17.3448 32.3504 17.3263 32.3504 17.3077C32.3504 16.3998 31.6169 15.6645 30.7113 15.6645C29.8057 15.6645 29.0722 16.3998 29.0722 17.3077C29.0722 18.1253 29.6733 18.7995 30.4544 18.9243C30.2187 19.0782 29.9513 19.1632 29.6574 19.1233C29.051 19.0384 28.4552 18.3589 28.3784 17.7616C28.1083 16.2804 29.6282 15.2212 30.9734 15.2823C33.3116 15.346 34.527 16.7608 34.9957 18.6216C35.1334 19.1711 35.1916 20.9603 35.1863 22.537C35.7398 22.9671 36.2641 23.4475 36.648 23.9625C37.2729 23.206 37.9958 22.5928 38.7187 22.0911C38.5545 18.2925 36.8466 13.7082 32.6231 13.0207C31.4368 12.8269 30.1472 12.9092 29.0775 13.4613C26.6201 14.5762 25.651 17.8545 27.8038 19.7472C28.1136 20.0206 28.4843 20.2382 28.8789 20.3656C29.6521 20.6152 30.4888 20.4586 31.1323 19.9648C31.4951 19.6861 31.7837 19.3145 31.9823 18.903C32.1968 18.4571 32.353 18.0297 32.3557 17.5253Z" fill="white"/>
<path d="M46.0565 22.1695C44.7881 21.5165 43.2629 21.4183 41.8568 21.6466C39.4736 22.0341 37.7736 23.4729 36.6191 25.3575C35.4646 23.4755 33.7646 22.0341 31.3814 21.6466C29.9754 21.4183 28.4501 21.5165 27.1817 22.1695C24.269 23.4888 23.1224 27.3723 25.6724 29.6153C26.0696 29.9631 26.5462 30.2365 27.0546 30.3798C27.4995 30.5046 27.9708 30.5258 28.421 30.4303C28.8632 30.3374 29.2763 30.1356 29.6311 29.8596C30.0098 29.5649 30.3196 29.188 30.5526 28.7686C30.8253 28.2775 30.9736 27.736 31.0822 27.1891C31.0875 27.1626 31.0875 27.1387 31.0928 27.1122C31.0928 27.1122 31.0928 27.1095 31.0928 27.1069C31.1034 27.0325 31.1113 26.9582 31.114 26.8839C31.1193 26.8281 31.1299 26.775 31.1299 26.7193C31.1299 25.6442 30.2613 24.7736 29.1889 24.7736C28.1165 24.7736 27.2479 25.6442 27.2479 26.7193C27.2479 27.6696 27.9285 28.458 28.8261 28.6279C28.5402 28.8163 28.2224 28.9225 27.8676 28.8774C27.15 28.7765 26.443 27.9722 26.3529 27.2635C26.0325 25.5088 27.8331 24.2559 29.4246 24.3276C32.1944 24.4046 33.6348 26.0769 34.1883 28.2828C34.4292 29.2437 34.469 33.4219 34.3524 35.2482C35.0912 36.233 35.8989 37.4355 36.2961 38.4946C36.6509 37.324 37.6889 35.6543 38.8381 34.3802C38.7772 32.3389 38.8328 29.111 39.042 28.2828C39.5954 26.0769 41.0359 24.4019 43.8057 24.3276C45.3971 24.2559 47.2004 25.5088 46.8773 27.2635C46.7873 27.9722 46.0803 28.7765 45.3627 28.8774C45.0132 28.9225 44.6981 28.8217 44.4174 28.6385C44.7987 28.5721 45.1641 28.3969 45.4607 28.0996C46.218 27.3404 46.218 26.1088 45.4607 25.3496C44.7034 24.5904 43.4747 24.5904 42.7174 25.3496C42.487 25.5805 42.3361 25.8539 42.246 26.1459C42.1851 26.2787 42.1401 26.5706 42.1348 26.6237C42.1083 26.8626 42.1375 27.1042 42.1825 27.3378C42.3334 28.1448 42.6697 28.9331 43.2417 29.5304C43.5727 29.8755 43.9778 30.1542 44.428 30.3188C45.0132 30.5311 45.6513 30.5418 46.2471 30.3613C46.7317 30.2126 47.1845 29.9498 47.5658 29.6153C50.1158 27.3723 48.9692 23.4888 46.0565 22.1695Z" fill="white"/>
<path d="M63.8238 53.1435C63.5326 52.4295 63.5379 51.6198 63.702 50.858C64.1945 48.4902 66.7578 47.301 68.9662 47.2081C69.0033 47.2081 69.0403 47.2187 69.0774 47.2213C71.5585 39.5419 71.2223 31.1431 67.5601 23.1477C66.7445 23.3601 65.9713 23.6866 65.4312 24.2148C64.2422 25.3722 63.3472 27.5781 64.9704 29.3964C65.9025 30.4423 67.6899 30.0016 67.6528 28.4726C67.4065 28.7009 67.0941 28.8602 66.7339 28.8974C65.8575 28.9876 65.0737 28.3479 64.9836 27.4692C64.8936 26.5906 65.5318 25.8049 66.4082 25.7146C66.8875 25.6642 67.3324 25.8367 67.6581 26.142C67.7508 26.1792 67.854 26.2349 67.9123 26.3119C69.2945 27.825 69.2045 30.36 67.1682 31.2625C65.4788 32.0721 63.5246 30.9679 62.6958 29.4283C62.1291 28.4673 61.965 27.3073 62.0417 26.1818C62.1927 23.6176 64.078 21.7276 66.3103 20.6658C64.6235 17.6105 62.4336 14.6348 59.7062 11.7998C54.7016 6.70315 48.0684 2.84351 41.0539 1.07031C40.8183 2.52232 40.7229 4.21323 41.3426 5.45553C42.2005 7.18626 44.2739 8.9807 46.7418 7.87112C48.1584 7.23405 48.2617 5.11311 46.6147 4.59017C46.7815 4.94322 46.8477 5.3467 46.7736 5.75549C46.5882 6.75093 45.6535 7.37473 44.6843 7.1491C43.7152 6.92347 43.077 5.936 43.2624 4.94056C43.363 4.39639 43.6913 3.97167 44.1229 3.72746C44.1918 3.63721 44.2845 3.54695 44.3851 3.50979C46.4479 2.55152 49.1329 3.58677 49.4454 6.15367C49.7711 8.30646 47.9598 10.0398 46.048 10.3849C44.8379 10.6504 43.543 10.4035 42.362 9.90447C38.7687 8.42326 37.4448 4.0168 37.7307 0.390761C32.1488 -0.469295 26.4504 0.0483316 21.2365 2.36305C18.4165 3.61597 15.7208 5.2007 13.2503 7.07743C14.847 7.88174 15.9062 9.71865 16.0492 11.5131C16.2292 13.058 15.7897 14.6242 15.0588 16.0151C12.8345 20.3499 7.21819 21.279 2.87817 20.2703C2.7802 20.2384 2.68752 20.2012 2.59484 20.1641C1.676 22.2001 0.974283 24.3449 0.540016 26.5933C-1.5863 37.5537 2.63456 49.2334 12.0031 55.514C14.8152 57.3987 18.1887 58.418 21.5411 58.7179C24.4803 58.9807 27.3745 58.6118 29.9616 57.6296C31.0314 57.3721 32.2759 56.6554 33.539 55.729C33.6158 55.6732 33.6899 55.6122 33.7641 55.5538C33.9044 55.4503 34.0421 55.3441 34.1772 55.2353C38.2895 51.9835 41.1413 47.3886 42.468 42.2919C42.9446 40.4603 43.5722 38.7455 44.4301 37.7156C46.7577 34.854 52.0986 33.9781 54.5559 37.1741C55.9329 39.0641 55.0749 42.1566 52.6759 42.6291C52.0536 42.7034 51.5028 42.5149 51.0209 42.1778C52.2151 41.8354 53.0916 40.7338 53.0916 39.4277C53.0916 37.8457 51.8126 36.5662 50.2371 36.5662C48.9343 36.5662 47.838 37.4422 47.4938 38.6367C47.4938 38.642 47.4885 38.6473 47.4885 38.6526C47.4885 38.6526 47.4435 38.8331 47.4435 38.8358C47.4038 39.0269 47.3826 39.2233 47.3826 39.4277C47.3826 39.6534 47.4117 39.871 47.4594 40.0807C47.4726 40.163 47.4859 40.248 47.5017 40.3276C47.8116 41.6442 48.3094 42.8839 49.3845 43.9351C52.3978 46.9426 57.3098 44.4819 58.324 40.763C59.8863 35.5947 55.3 30.9785 50.3271 30.5936C47.9916 30.421 45.6535 30.7475 43.5033 31.7828C39.8624 33.5826 37.5507 36.9458 36.2638 40.6754C36.1367 40.309 36.0016 39.9427 35.8533 39.579C34.2381 35.308 30.3879 31.3422 25.6375 30.7263C23.3231 30.3494 20.8102 30.5113 18.721 31.5864C13.9255 33.7577 12.0349 40.1551 16.2345 43.8475C19.8543 46.9479 24.197 44.7181 25.0311 40.3276C25.0523 40.2241 25.0735 40.1179 25.092 40.0144C25.092 40.0091 25.092 40.0011 25.0946 39.9958C25.0946 39.9825 25.0999 39.9693 25.0999 39.956C25.1185 39.8631 25.1291 39.7675 25.137 39.672C25.1423 39.6189 25.1423 39.5684 25.1449 39.5153C25.1449 39.4861 25.1502 39.4596 25.1502 39.4304C25.1502 39.4224 25.1502 39.4118 25.1502 39.4039C25.1502 39.3269 25.1449 39.2499 25.1397 39.1729C25.1344 39.1251 25.1291 39.08 25.1211 39.0322C25.1158 39.0004 25.1158 38.9712 25.1079 38.9393C25.1079 38.9287 25.1026 38.9101 25.0973 38.8915C25.092 38.8703 25.0893 38.8491 25.084 38.8252C25.0761 38.7907 25.0708 38.7562 25.0655 38.7402C25.0655 38.7349 25.0602 38.7296 25.0576 38.7243C24.7425 37.4847 23.6277 36.5662 22.2931 36.5662C20.7149 36.5662 19.4386 37.8483 19.4386 39.4277C19.4386 40.7364 20.315 41.838 21.5119 42.1805C21.0247 42.5229 20.4713 42.7114 19.857 42.6317C18.6733 42.4645 17.5109 41.1425 17.3626 39.9746C16.833 37.0865 19.8013 35.0213 22.4228 35.1381C26.9773 35.2628 29.3499 38.0129 30.2661 41.6442C30.3509 41.984 30.3879 42.3371 30.3694 42.6875C30.2105 46.0162 28.7991 48.9521 25.1529 49.7564C19.277 51.0544 14.3465 46.563 11.8045 41.846C11.3437 40.9886 10.9359 40.0993 10.5997 39.1862C10.3852 39.4463 10.1283 39.6879 9.82115 39.9029C7.86959 41.3469 5.11836 40.4205 3.68845 38.6686C2.73518 37.5855 2.35652 36.1335 2.06525 34.7001C1.02724 29.5849 5.65589 24.9262 11.6165 23.5751C11.6244 23.5751 11.6297 23.5725 11.635 23.5698C14.1426 18.3988 18.5886 14.0773 23.7759 11.5954C26.1671 10.4513 28.7329 9.68149 31.3597 9.34437C31.0234 8.01181 30.4859 6.69518 29.5803 5.86167C27.9597 4.35923 24.9675 3.32132 22.6691 5.61746C21.3478 6.93674 22.0574 9.28862 24.0858 9.12935C23.7654 8.81878 23.5323 8.40999 23.4582 7.93483C23.2755 6.77216 24.0672 5.68117 25.227 5.49535C26.3868 5.31219 27.4752 6.10589 27.6579 7.26855C27.7585 7.90298 27.5599 8.51086 27.1786 8.96743C27.1362 9.09484 27.07 9.23553 26.972 9.32048C25.0629 11.2715 21.6893 11.3326 20.3468 8.68074C19.1499 6.48282 20.4792 3.79913 22.4626 2.58072C23.6992 1.75783 25.2244 1.45521 26.7284 1.47645C31.0499 1.50034 34.1375 5.29626 35.3767 9.16121C40.3761 9.28331 45.2351 11.1282 49.3606 13.9446C49.824 14.2525 50.2768 14.5764 50.719 14.9082C50.5681 14.011 50.7455 13.0527 51.3731 12.1634C52.7553 10.077 55.7449 10.0027 57.7467 11.1945C59.0522 11.9086 60.0293 13.1217 60.7125 14.4649C62.4151 17.7485 61.2712 21.5179 59.1369 24.3555C61.2685 27.9497 62.7408 31.9421 63.3922 36.0831C63.6835 37.8138 63.8371 39.4915 63.8768 41.124C64.4646 41.2248 65.0472 41.2408 65.5741 41.1054C67.1788 40.6939 69.0509 39.226 68.5425 36.8396C68.2512 35.4672 66.485 34.9576 65.7569 36.3034C66.0826 36.2264 66.4347 36.2477 66.7631 36.3937C67.5681 36.752 67.9308 37.697 67.5734 38.504C67.2159 39.3109 66.2732 39.6746 65.4682 39.3163C65.0287 39.1198 64.7268 38.7482 64.597 38.3208C64.5335 38.2412 64.4726 38.143 64.4593 38.0474C64.0118 36.0459 65.3464 33.8931 67.5628 34.1241C69.4322 34.2648 70.5761 36.1946 70.5338 37.9439C70.547 39.0614 70.1154 40.1471 69.4905 41.0868C68.2353 43.0113 66.0428 43.7705 63.8291 43.7731C63.1539 55.3016 56.2056 64.2526 45.9156 71.1781C54.6274 67.4486 61.3215 61.6644 65.5397 54.8477C64.7612 54.6061 64.1045 53.9213 63.8238 53.1488V53.1435Z" fill="white"/>
<path d="M66.2205 49.8568C65.2937 50.5284 64.4596 51.9433 65.3864 53.3501C65.5717 53.6315 65.8471 53.7987 66.1331 53.8545C66.2629 53.6262 66.3926 53.3979 66.5171 53.1696C65.9716 53.082 65.5638 52.6016 65.5876 52.0362C65.6141 51.4256 66.1278 50.9531 66.7368 50.9797C67.0228 50.9929 67.2744 51.1204 67.4624 51.3088C67.7749 50.6479 68.0661 49.9789 68.3336 49.3047C67.571 49.3259 66.7792 49.4533 66.2231 49.8568H66.2205Z" fill="white"/>
<path d="M83.5011 59.1156L82.2539 54.1863H82.9265L83.509 56.6815C83.6547 57.2947 83.7871 57.9105 83.8745 58.3857H83.8877C83.9671 57.8972 84.1207 57.3106 84.2902 56.6735L84.9469 54.1863H85.6115L86.21 56.6868C86.3477 57.2708 86.4801 57.8574 86.5516 58.375H86.5675C86.6681 57.8335 86.8084 57.2867 86.962 56.6709L87.6107 54.1836H88.2595L86.8667 59.113H86.202L85.5824 56.5461C85.4288 55.917 85.3282 55.4339 85.262 54.9375H85.2488C85.1614 55.4286 85.0528 55.9117 84.8701 56.5461L84.1684 59.113H83.5037L83.5011 59.1156Z" fill="white"/>
<path d="M91.8445 57.5667L91.3335 59.1169H90.6768L92.3476 54.1875H93.1155L94.7943 59.1169H94.1165L93.5922 57.5667H91.8472H91.8445ZM93.4571 57.0703L92.9752 55.6501C92.864 55.3289 92.7925 55.0369 92.7183 54.7503H92.7025C92.631 55.0422 92.5489 55.3422 92.4562 55.6422L91.9743 57.0676H93.4545L93.4571 57.0703Z" fill="white"/>
<path d="M98.742 54.1875V59.1169H98.1064V54.1875H98.742Z" fill="white"/>
<path d="M106.364 59.1165V58.721L106.867 58.2299C108.077 57.0752 108.626 56.4593 108.634 55.7426C108.634 55.2595 108.401 54.8136 107.694 54.8136C107.262 54.8136 106.904 55.0339 106.687 55.2144L106.483 54.7605C106.812 54.4817 107.278 54.2773 107.826 54.2773C108.848 54.2773 109.277 54.9808 109.277 55.6603C109.277 56.539 108.642 57.2477 107.643 58.214L107.265 58.5643V58.5803H109.396V59.1138H106.37L106.364 59.1165Z" fill="white"/>
<path d="M115.406 54.8134C115.276 54.8054 115.107 54.8134 114.924 54.8426C113.915 55.0098 113.383 55.7504 113.275 56.5309H113.296C113.521 56.2309 113.915 55.9814 114.44 55.9814C115.279 55.9814 115.87 56.5893 115.87 57.5183C115.87 58.389 115.279 59.1933 114.294 59.1933C113.309 59.1933 112.615 58.4023 112.615 57.1679C112.615 56.2309 112.952 55.493 113.418 55.0258C113.812 54.6382 114.336 54.3966 114.935 54.3223C115.123 54.2931 115.284 54.2852 115.401 54.2852V54.8107L115.406 54.8134ZM115.223 57.5555C115.223 56.8759 114.837 56.4671 114.246 56.4671C113.86 56.4671 113.502 56.7087 113.328 57.0511C113.283 57.1255 113.256 57.2184 113.256 57.3352C113.269 58.1182 113.627 58.6969 114.299 58.6969C114.853 58.6969 115.226 58.235 115.226 57.5555H115.223Z" fill="white"/>
<path d="M119.037 59.1165V58.721L119.54 58.2299C120.75 57.0752 121.298 56.4593 121.306 55.7426C121.306 55.2595 121.073 54.8136 120.364 54.8136C119.935 54.8136 119.577 55.0339 119.358 55.2144L119.154 54.7605C119.482 54.4817 119.948 54.2773 120.496 54.2773C121.518 54.2773 121.947 54.9808 121.947 55.6603C121.947 56.539 121.312 57.2477 120.313 58.214L119.935 58.5643V58.5803H122.066V59.1138H119.037V59.1165Z" fill="white"/>
<path d="M87.2898 17.604H83.0796C83.5191 17.3545 83.8766 16.7333 83.8766 16.2263V6.87987C83.8766 6.77634 83.7574 6.70998 83.6727 6.76838C82.632 7.51429 82.2852 8.95834 81.1386 8.95834C80.2542 8.95834 79.8464 8.09297 79.8252 6.34897C79.8252 6.2773 79.8835 6.21094 79.955 6.21094H90.4118C90.4833 6.21094 90.5442 6.27465 90.5415 6.34897C90.5203 8.09297 90.1126 8.95834 89.2281 8.95834C88.0418 8.95834 87.8115 7.42139 86.6702 6.70202C86.5855 6.64893 86.4742 6.71529 86.4742 6.81616V16.2263C86.4742 16.7864 86.7735 17.3041 87.2554 17.5854L87.2872 17.604H87.2898Z" fill="white"/>
<path d="M87.29 17.8152H83.0798C82.9844 17.8152 82.8997 17.7514 82.8759 17.6585C82.852 17.5656 82.8917 17.4674 82.9765 17.4196C83.3498 17.2046 83.6676 16.6604 83.6676 16.2278V7.04056C83.3472 7.30336 83.0956 7.64048 82.8494 7.96698C82.4045 8.55893 81.9438 9.16947 81.1414 9.16947C79.648 9.16947 79.6242 7.04852 79.6162 6.35305C79.6162 6.26279 79.6506 6.16989 79.7168 6.10353C79.783 6.03716 79.8678 6 79.9578 6H90.4146C90.5047 6 90.5894 6.03716 90.6556 6.10353C90.7218 6.16989 90.7589 6.26014 90.7562 6.35305C90.7483 7.04852 90.7244 9.16947 89.231 9.16947C88.4339 9.16947 88.0076 8.56955 87.5972 7.99087C87.335 7.6219 87.0649 7.2423 86.6889 6.96624V16.2251C86.6889 16.7082 86.9484 17.1595 87.3668 17.4011C87.4489 17.4488 87.5045 17.555 87.4807 17.6479C87.4568 17.7408 87.388 17.8125 87.2927 17.8125L87.29 17.8152ZM83.6385 17.3904H86.6995C86.4241 17.0719 86.2653 16.6578 86.2653 16.2251V6.81493C86.2653 6.69017 86.3341 6.57603 86.4453 6.51497C86.5512 6.45657 86.6836 6.45923 86.7869 6.52294C87.3006 6.84944 87.6422 7.32725 87.9414 7.74666C88.3386 8.30675 88.6537 8.7474 89.231 8.7474C89.6864 8.7474 90.2955 8.50584 90.3325 6.42472H80.0399C80.0796 8.50319 80.686 8.7474 81.1414 8.7474C81.7346 8.7474 82.0947 8.26694 82.5131 7.71215C82.7964 7.33521 83.1195 6.90784 83.5537 6.59461C83.657 6.52028 83.7894 6.51232 83.9033 6.57072C84.0198 6.63177 84.0913 6.74857 84.0913 6.87598V16.2225C84.0913 16.6153 83.9112 17.0533 83.6411 17.3878L83.6385 17.3904Z" fill="white"/>
<path d="M96.4247 17.6065H92.2012L92.3097 17.5428C92.7334 17.2774 93.0141 16.7889 93.0141 16.3032V7.59643C93.0141 7.03368 92.7149 6.5134 92.2276 6.23468L92.2012 6.21875H96.4247L96.3797 6.2453C95.903 6.51871 95.6117 7.02572 95.6117 7.5752V16.3058C95.6117 16.7916 95.8924 17.2774 96.3161 17.5455L96.4247 17.6092V17.6065Z" fill="white"/>
<path d="M96.4274 17.8177H92.2039C92.1086 17.8177 92.0238 17.7539 92 17.661C91.9762 17.5681 92.0159 17.4699 92.098 17.4221L92.2066 17.3584C92.5667 17.1301 92.805 16.716 92.805 16.3019V7.5952C92.805 7.10943 92.5455 6.65816 92.1245 6.4166C92.0424 6.36882 91.9868 6.26264 92.0133 6.17239C92.0371 6.07948 92.1086 6.00781 92.2039 6.00781H96.4274C96.5227 6.00781 96.6075 6.07152 96.6313 6.16443C96.6551 6.25733 96.6154 6.35555 96.5333 6.40333C96.0805 6.66347 95.8263 7.10412 95.8263 7.57662V16.3072C95.8263 16.7187 96.0646 17.1354 96.4327 17.3664L96.5333 17.4248C96.6154 17.4726 96.6578 17.5708 96.6313 17.6637C96.6048 17.7566 96.5227 17.8203 96.4274 17.8203V17.8177ZM92.805 17.3929H95.8263C95.5589 17.085 95.4027 16.6948 95.4027 16.3019V7.57396C95.4027 7.14924 95.5589 6.74311 95.829 6.42988H92.7891C93.0698 6.75372 93.226 7.16517 93.226 7.5952V16.3046C93.226 16.6948 93.0698 17.0903 92.805 17.3956V17.3929Z" fill="white"/>
<path d="M102.91 6.21484H103.286L107.369 16.3338C107.557 16.8036 107.994 17.2575 108.45 17.4938L108.685 17.6026H103.93L104.134 17.5097C104.586 17.2735 104.743 16.8036 104.571 16.3338L103.657 14.0775C103.593 13.9235 103.445 13.8226 103.281 13.8226H100.08L99.9233 14.1996C99.5765 15.0278 99.8201 16.1612 100.485 16.9204C100.72 17.1885 100.556 17.6053 100.199 17.6053H98.3107C97.9533 17.6053 97.7785 17.1832 98.0195 16.9178C98.5173 16.3683 98.8986 15.8029 99.1395 15.2507L102.91 6.21484ZM103.199 12.9493L102.216 10.5204C102.079 10.1833 101.605 10.1807 101.464 10.5178L100.453 12.9466C100.342 13.2147 100.538 13.512 100.829 13.512H102.823C103.111 13.512 103.307 13.2201 103.199 12.9519V12.9493Z" fill="white"/>
<path d="M108.685 17.8166H103.929C103.831 17.8166 103.744 17.7475 103.723 17.6493C103.702 17.5511 103.749 17.4529 103.839 17.4104L104.043 17.3149C104.382 17.1397 104.512 16.7866 104.372 16.4044L103.461 14.1534C103.432 14.079 103.36 14.0312 103.281 14.0312H100.22L100.119 14.2781C99.8065 15.024 100.029 16.0752 100.643 16.776C100.813 16.9698 100.855 17.2299 100.752 17.4582C100.654 17.6759 100.442 17.8112 100.201 17.8112H98.3157C98.0694 17.8112 97.8549 17.6706 97.7569 17.4476C97.6563 17.2166 97.6987 16.9592 97.8682 16.7707C98.3527 16.2371 98.7182 15.6956 98.9512 15.1594L102.722 6.12616C102.754 6.04653 102.83 5.99609 102.918 5.99609H103.294C103.379 5.99609 103.458 6.04918 103.49 6.12882L107.573 16.2477C107.737 16.6565 108.132 17.0786 108.553 17.2989L108.78 17.4051C108.87 17.4476 108.918 17.5458 108.897 17.644C108.876 17.7422 108.788 17.8112 108.69 17.8112L108.685 17.8166ZM104.607 17.3918H107.92C107.589 17.1184 107.316 16.768 107.176 16.4123L103.146 6.42612H103.053L101.496 10.161C101.596 10.092 101.729 10.0575 101.848 10.0548C102.102 10.0548 102.322 10.2035 102.417 10.4424L103.4 12.8712C103.477 13.0624 103.455 13.28 103.339 13.4499C103.294 13.5163 103.241 13.5694 103.177 13.6118H103.281C103.535 13.6118 103.757 13.7631 103.853 13.9994L104.766 16.2557C104.92 16.6751 104.853 17.0892 104.607 17.3945V17.3918ZM99.5629 14.7825L99.3325 15.3319C99.0783 15.9106 98.689 16.492 98.1727 17.06C98.0879 17.1529 98.1224 17.2511 98.1356 17.2803C98.1515 17.3149 98.1965 17.3918 98.3104 17.3918H100.196C100.299 17.3918 100.344 17.3255 100.363 17.2883C100.389 17.2299 100.392 17.137 100.323 17.06C99.7615 16.4203 99.4861 15.5576 99.5629 14.7825ZM100.22 13.2084L100.05 13.6118C100.05 13.6118 100.066 13.6118 100.077 13.6118H100.476C100.413 13.5667 100.357 13.511 100.315 13.4446C100.267 13.3729 100.235 13.2906 100.22 13.2084ZM101.84 10.4769C101.808 10.4769 101.705 10.4848 101.66 10.5963L100.649 13.0252C100.622 13.0862 100.63 13.1526 100.667 13.2084C100.704 13.2641 100.762 13.296 100.829 13.296H102.823C102.889 13.296 102.947 13.2641 102.984 13.2084C103.021 13.1526 103.026 13.0862 103.003 13.0252L102.02 10.5963C101.975 10.4848 101.872 10.4742 101.84 10.4742V10.4769Z" fill="white"/>
<path d="M114.424 17.6053H110.2C110.703 17.3159 111.013 16.7797 111.013 16.1984V7.62438C111.013 7.10675 110.648 6.47498 110.2 6.2175H114.424L114.405 6.22812C113.915 6.50949 113.611 7.03508 113.611 7.60314V11.7707L114.972 9.9975C115.803 8.93305 116.412 7.40671 116.087 6.45906C116.047 6.3396 116.116 6.21484 116.24 6.21484H119.399C119.585 6.21484 119.651 6.4564 119.489 6.54931C118.102 7.33769 116.674 8.50833 115.668 9.6763C115.615 9.73736 115.613 9.82495 115.655 9.89132L119.746 16.4134C120.011 16.8381 120.466 17.2443 120.903 17.4487L121.263 17.6053H116.288L116.428 17.5283C116.852 17.2761 117.008 16.8381 116.727 16.4134L113.846 11.991L113.613 12.3202V16.201C113.613 16.7824 113.923 17.3186 114.426 17.6079L114.424 17.6053Z" fill="white"/>
<path d="M121.263 17.8164H116.288C116.192 17.8164 116.108 17.75 116.084 17.6571C116.06 17.5642 116.102 17.466 116.184 17.4182L116.325 17.3412C116.494 17.2404 116.611 17.0997 116.645 16.9457C116.677 16.8103 116.645 16.6697 116.55 16.529L113.838 12.3641L113.822 12.3853V16.1972C113.822 16.7015 114.093 17.1687 114.529 17.4209C114.612 17.4687 114.654 17.5669 114.627 17.6598C114.601 17.7527 114.519 17.8164 114.424 17.8164H110.2C110.115 17.8164 110.039 17.7633 110.004 17.6863C109.972 17.6067 109.991 17.5164 110.049 17.4554C110.062 17.4421 110.078 17.4288 110.094 17.4209C110.531 17.1714 110.801 16.7042 110.801 16.1998V7.62315C110.801 7.17985 110.478 6.61975 110.094 6.39943C110.012 6.35164 109.97 6.25343 109.996 6.16052C110.023 6.06761 110.105 6.00391 110.2 6.00391H114.424C114.519 6.00391 114.604 6.06761 114.627 6.16052C114.651 6.25343 114.612 6.34899 114.529 6.39943C114.085 6.65691 113.82 7.11083 113.82 7.60191V11.1483L114.802 9.86885C115.573 8.88403 116.192 7.42141 115.883 6.5295C115.84 6.40473 115.856 6.2667 115.93 6.16318C116.002 6.0623 116.113 6.00656 116.235 6.00656H119.394C119.574 6.00656 119.727 6.12336 119.772 6.29855C119.817 6.4711 119.743 6.64629 119.59 6.73655C118.221 7.51431 116.815 8.66636 115.824 9.81576L119.921 16.3007C120.167 16.6936 120.588 17.0705 120.988 17.2563L121.343 17.4103C121.435 17.4501 121.486 17.5483 121.464 17.6465C121.443 17.7447 121.359 17.8164 121.258 17.8164H121.263ZM116.891 17.3917H120.397C120.072 17.1581 119.767 16.8449 119.566 16.5237L115.475 10.0016C115.424 9.92194 115.406 9.82903 115.417 9.74143C115.327 9.87681 115.234 10.0042 115.139 10.1263L113.87 11.7774C113.931 11.7854 113.987 11.8199 114.021 11.873L116.902 16.2954C117.058 16.5343 117.114 16.7918 117.056 17.0413C117.026 17.1661 116.971 17.2855 116.891 17.3917ZM110.783 17.3917H113.844C113.563 17.0625 113.401 16.6405 113.401 16.1972V12.3163C113.401 12.2712 113.415 12.2287 113.441 12.1942L113.595 11.9792C113.579 11.9792 113.563 11.9739 113.547 11.9686C113.462 11.9394 113.404 11.8571 113.404 11.7668V7.59926C113.404 7.16392 113.563 6.74716 113.841 6.42597H110.764C111.045 6.7684 111.23 7.21966 111.23 7.62315V16.1972C111.23 16.6405 111.069 17.0652 110.788 17.3917H110.783ZM116.298 6.42597C116.568 7.27275 116.198 8.43011 115.639 9.38839C116.624 8.28412 117.964 7.19046 119.28 6.42597H116.301H116.298Z" fill="white"/>
<path d="M127.001 17.6026H122.777L122.886 17.5389C123.31 17.2735 123.59 16.785 123.59 16.2993V7.62172C123.59 7.04039 123.28 6.50418 122.777 6.21484H127.001L126.982 6.22546C126.49 6.50684 126.188 7.03243 126.188 7.60049V16.3019C126.188 16.7877 126.469 17.2735 126.892 17.5416L127.001 17.6053V17.6026Z" fill="white"/>
<path d="M127.001 17.8164H122.777C122.682 17.8164 122.597 17.7527 122.573 17.6598C122.549 17.5669 122.589 17.4687 122.671 17.4209L122.78 17.3572C123.14 17.1289 123.378 16.7121 123.378 16.3007V7.62315C123.378 7.11879 123.108 6.64895 122.671 6.39943C122.589 6.35164 122.547 6.25343 122.573 6.16052C122.6 6.06761 122.682 6.00391 122.777 6.00391H127.001C127.096 6.00391 127.181 6.06761 127.205 6.16052C127.228 6.25343 127.189 6.35164 127.107 6.39943C126.664 6.65426 126.4 7.11083 126.4 7.60191V16.3033C126.4 16.7148 126.638 17.1315 127.003 17.3625L127.104 17.4209C127.186 17.4687 127.228 17.5669 127.202 17.6598C127.175 17.7527 127.093 17.8164 126.998 17.8164H127.001ZM123.378 17.3917H126.4C126.132 17.0838 125.976 16.6936 125.976 16.3007V7.60191C125.976 7.16657 126.135 6.74982 126.413 6.42862H123.357C123.638 6.75778 123.799 7.17985 123.799 7.6258V16.306C123.799 16.6962 123.64 17.0917 123.376 17.397L123.378 17.3917Z" fill="white"/>
<path d="M87.2583 32.3643H83.0481C83.4876 32.1148 83.8451 31.4937 83.8451 30.9867V23.3975C83.8451 22.6383 82.8892 22.3038 82.4205 22.8984C82.0577 23.3576 81.6844 23.7213 81.1071 23.7213C80.3577 23.7213 79.9499 23.1002 79.8308 21.8472C79.7858 21.38 80.1644 20.9766 80.6305 20.9766H89.6759C90.142 20.9766 90.5206 21.3827 90.4756 21.8472C90.3565 23.1002 89.9487 23.7213 89.1993 23.7213C88.5982 23.7213 88.2407 23.3258 87.8859 22.84C87.4305 22.2162 86.4454 22.5454 86.4454 23.3178V30.9867C86.4454 31.5468 86.7446 32.0644 87.2266 32.3458L87.2583 32.3643Z" fill="white"/>
<path d="M87.2583 32.5755H83.048C82.9527 32.5755 82.8679 32.5118 82.8441 32.4188C82.8203 32.3259 82.86 32.2277 82.9447 32.1799C83.3181 31.9649 83.6359 31.4208 83.6359 30.9881V23.3989C83.6359 23.0883 83.432 22.9078 83.2387 22.8414C83.0507 22.7751 82.7779 22.7883 82.5873 23.0299C82.243 23.4679 81.8141 23.9324 81.107 23.9324C79.8148 23.9324 79.6692 22.3769 79.6215 21.8672C79.5951 21.5885 79.6904 21.3098 79.8784 21.1001C80.0717 20.8877 80.3471 20.7656 80.6304 20.7656H89.6759C89.9619 20.7656 90.2346 20.8877 90.4279 21.1001C90.6186 21.3098 90.7112 21.5885 90.6848 21.8672C90.6371 22.3769 90.4888 23.9324 89.1966 23.9324C88.479 23.9324 88.0712 23.4546 87.7137 22.9662C87.531 22.714 87.2556 22.6928 87.0623 22.7565C86.8637 22.8229 86.6545 23.0034 86.6545 23.3192V30.9881C86.6545 31.4712 86.914 31.9225 87.3324 32.164C87.4145 32.2118 87.4701 32.318 87.4463 32.4109C87.4225 32.5038 87.3536 32.5781 87.2583 32.5781V32.5755ZM83.6067 32.1507H86.6651C86.3898 31.8322 86.2335 31.4181 86.2335 30.9854V23.3166C86.2335 22.8706 86.5089 22.491 86.9326 22.3504C87.3536 22.2123 87.7958 22.353 88.058 22.7114C88.434 23.2263 88.7279 23.5051 89.1992 23.5051C89.5885 23.5051 90.1234 23.3299 90.2664 21.8221C90.2823 21.6602 90.2293 21.5036 90.1154 21.3788C90.0016 21.2541 89.8427 21.1824 89.6759 21.1824H80.6304C80.4636 21.1824 80.3047 21.2541 80.1909 21.3788C80.0796 21.5036 80.024 21.6602 80.0399 21.8221C80.1829 23.3299 80.7178 23.5051 81.107 23.5051C81.5757 23.5051 81.8935 23.221 82.2563 22.7618C82.5264 22.4194 82.9686 22.292 83.379 22.4353C83.7921 22.5786 84.0595 22.9556 84.0595 23.3936V30.9828C84.0595 31.3756 83.8795 31.8136 83.6094 32.1481L83.6067 32.1507Z" fill="white"/>
<path d="M94.8598 20.9727H95.2358L99.3216 31.0916C99.5096 31.5614 99.9466 32.0153 100.399 32.2516L100.635 32.3604H95.8766L96.0805 32.2675C96.5333 32.0313 96.6922 31.5614 96.5174 31.0916L95.6118 28.8538C95.5456 28.6893 95.3841 28.5804 95.2067 28.5804H92.0265L91.8703 28.9574C91.5287 29.7776 91.7643 30.8952 92.4131 31.6543C92.6514 31.9304 92.4343 32.3631 92.0715 32.3631H90.3344C89.9505 32.3631 89.7625 31.9118 90.0167 31.6251C90.4907 31.0916 90.8561 30.5448 91.0891 30.0112L94.8598 20.9753V20.9727ZM95.1325 27.6646L94.1952 25.3473C94.0495 24.9836 93.5385 24.9809 93.3875 25.342L92.4237 27.6593C92.3045 27.9487 92.5137 28.2672 92.8262 28.2672H94.7274C95.0372 28.2672 95.2491 27.9513 95.1325 27.6646Z" fill="white"/>
<path d="M100.635 32.5742H95.8768C95.7788 32.5742 95.6914 32.5052 95.6702 32.407C95.649 32.3088 95.6967 32.2105 95.7867 32.1681L95.9906 32.0725C96.3322 31.8973 96.4593 31.5469 96.319 31.162L95.416 28.9322C95.3816 28.8473 95.2995 28.7916 95.2068 28.7916H92.1696L92.0663 29.0384C91.7592 29.7737 91.9737 30.8143 92.5721 31.5151C92.7336 31.7035 92.7681 31.961 92.6648 32.1893C92.5562 32.4256 92.3285 32.5742 92.0716 32.5742H90.3319C90.0751 32.5742 89.85 32.4282 89.7441 32.1946C89.6355 31.9531 89.6805 31.6823 89.8579 31.4832C90.3213 30.9629 90.6709 30.44 90.8959 29.925L94.6667 20.8918C94.6984 20.8122 94.7752 20.7617 94.8626 20.7617H95.2386C95.3233 20.7617 95.4028 20.8148 95.4346 20.8944L99.5204 31.0134C99.6819 31.4222 100.076 31.8442 100.5 32.0646L100.728 32.1707C100.818 32.2132 100.866 32.3114 100.844 32.4096C100.823 32.5079 100.736 32.5769 100.638 32.5769L100.635 32.5742ZM96.5573 32.1495H99.8699C99.5389 31.8761 99.2662 31.5257 99.1258 31.17L95.0956 21.1864H95.0029L93.4195 24.9797C93.5254 24.9054 93.6525 24.8629 93.7928 24.8629C93.7928 24.8629 93.7928 24.8629 93.7955 24.8629C94.0629 24.8629 94.2933 25.0195 94.3939 25.2664L95.3313 27.5838C95.4134 27.7829 95.3895 28.0111 95.2677 28.1916C95.2201 28.2633 95.1592 28.3217 95.0903 28.3668H95.2095C95.4743 28.3668 95.7099 28.5261 95.8106 28.773L96.7162 31.0107C96.8698 31.4301 96.8036 31.8442 96.5599 32.1495H96.5573ZM91.5156 29.5348L91.2852 30.0896C91.0416 30.6497 90.6682 31.2098 90.1757 31.7646C90.1095 31.8389 90.0936 31.9345 90.1333 32.0221C90.1519 32.0619 90.2048 32.1522 90.3346 32.1522H92.0743C92.1829 32.1522 92.2544 32.0805 92.2835 32.0141C92.2994 31.977 92.3311 31.8814 92.2543 31.7938C91.7089 31.1567 91.4441 30.302 91.5156 29.5375V29.5348ZM92.1855 27.9315L92.0028 28.3722C92.0028 28.3722 92.0213 28.3722 92.0293 28.3722H92.4635C92.3947 28.3244 92.3338 28.2633 92.2861 28.1916C92.2332 28.112 92.1987 28.0244 92.1855 27.9342V27.9315ZM93.7902 25.2876C93.7531 25.2876 93.6339 25.2982 93.581 25.4283L92.6171 27.7457C92.588 27.8174 92.5959 27.8943 92.6383 27.9581C92.6807 28.0218 92.7495 28.0589 92.8263 28.0589H94.7302C94.807 28.0589 94.8758 28.0218 94.9182 27.9581C94.9606 27.8943 94.9685 27.8174 94.9394 27.7457L94.002 25.4283C93.949 25.2956 93.8325 25.2982 93.7928 25.2876H93.7902Z" fill="white"/>
<path d="M106.642 20.8008C109.96 20.8008 112.165 23.1553 112.165 26.6831C112.165 30.211 109.928 32.5177 106.674 32.5177C103.419 32.5177 101.118 30.2428 101.118 26.6672C101.118 23.0916 103.34 20.8008 106.642 20.8008ZM106.674 32.2045C108.395 32.2045 109.396 30.057 109.396 26.6831C109.396 23.3093 108.411 21.1299 106.658 21.1299C104.905 21.1299 103.872 23.3119 103.872 26.6513C103.872 29.9906 104.937 32.2045 106.674 32.2045Z" fill="white"/>
<path d="M106.674 32.7315C103.226 32.7315 100.906 30.2947 100.906 26.6686C100.906 23.0426 103.21 20.5898 106.642 20.5898C110.074 20.5898 112.377 23.0399 112.377 26.6846C112.377 30.3292 110.084 32.7315 106.674 32.7315ZM105.903 21.0544C103.101 21.3703 101.33 23.5045 101.33 26.6686C101.33 29.8328 103.08 31.9139 105.855 32.259C104.484 31.6936 103.663 29.6523 103.663 26.6527C103.663 23.6531 104.502 21.5826 105.903 21.0544ZM107.441 21.065C108.813 21.6039 109.607 23.6213 109.607 26.6872C109.607 29.7532 108.832 31.7016 107.494 32.259C110.232 31.9113 111.956 29.8009 111.956 26.6872C111.956 23.5735 110.174 21.418 107.444 21.065H107.441ZM106.658 21.3437C105.072 21.3437 104.084 23.3797 104.084 26.6554C104.084 29.931 105.077 31.9962 106.674 31.9962C108.27 31.9962 109.184 29.9602 109.184 26.6872C109.184 23.4142 108.215 21.3464 106.658 21.3464V21.3437Z" fill="white"/>
<path d="M116.465 32.3643H113.825C113.652 32.3643 113.554 32.1812 113.642 32.0325C113.941 31.5176 114.164 30.5646 114.164 29.7603V22.3834C114.164 21.8021 113.854 21.2659 113.351 20.9766H117.132C117.203 20.9766 117.272 21.0111 117.312 21.0721L121.528 27.2651C121.649 27.4429 121.925 27.3553 121.925 27.143V24.3982C121.925 23.209 121.101 22.0808 119.841 21.3827C119.647 21.2765 119.727 20.9792 119.949 20.9792H122.573C122.746 20.9792 122.844 21.1624 122.756 21.311C122.462 21.8207 122.253 22.771 122.253 23.5833V32.367H121.925L114.889 22.0331C114.767 21.8552 114.492 21.9428 114.492 22.1552V28.948C114.492 30.1266 115.305 31.2627 116.573 31.9635C116.766 32.0697 116.687 32.367 116.465 32.367V32.3643Z" fill="white"/>
<path d="M122.253 32.5742H121.925C121.856 32.5742 121.79 32.5397 121.75 32.4813L114.714 22.1474L114.704 28.9429C114.704 30.0153 115.458 31.101 116.677 31.7726C116.849 31.8681 116.931 32.0592 116.883 32.2504C116.833 32.4441 116.666 32.5742 116.467 32.5742H113.827C113.674 32.5742 113.533 32.4946 113.459 32.3619C113.382 32.2291 113.385 32.0592 113.462 31.9239C113.748 31.4354 113.954 30.5249 113.954 29.7578V22.381C113.954 21.8766 113.684 21.4068 113.247 21.1572C113.165 21.1095 113.123 21.0112 113.149 20.9183C113.176 20.8254 113.258 20.7617 113.353 20.7617H117.135C117.278 20.7617 117.41 20.8307 117.489 20.9502L121.705 27.1431L121.716 24.3931C121.716 23.3047 120.977 22.2482 119.74 21.5634C119.568 21.4678 119.486 21.2767 119.536 21.0856C119.587 20.8918 119.753 20.7617 119.952 20.7617H122.576C122.73 20.7617 122.868 20.8414 122.944 20.9741C123.021 21.1068 123.021 21.2767 122.942 21.4121C122.666 21.8899 122.468 22.8004 122.468 23.5781V32.3619C122.468 32.4787 122.372 32.5742 122.256 32.5742H122.253ZM122.036 32.1495H122.041V27.4059C121.988 27.4723 121.917 27.5201 121.832 27.5466C121.649 27.5997 121.459 27.536 121.353 27.3767L117.137 21.1838H113.933C114.124 21.4041 114.259 21.6696 114.325 21.9562C114.375 21.8527 114.468 21.7731 114.582 21.7359C114.762 21.6802 114.955 21.7465 115.061 21.9058L122.036 32.1468V32.1495ZM114.373 29.6569V29.7578C114.373 30.5887 114.142 31.5894 113.825 32.1362L116.465 32.1495H116.47C115.384 31.5443 114.627 30.6311 114.373 29.6569ZM119.944 21.1864C121.043 21.8023 121.787 22.6942 122.039 23.6657V23.5781C122.039 22.7207 122.256 21.7439 122.568 21.1997L119.944 21.1838V21.1864Z" fill="white"/>
<path d="M134.188 32.3358C133.752 32.0544 133.296 31.9589 132.843 31.9589C131.763 31.9589 130.622 32.5243 129.385 32.5243C126.88 32.5243 125.019 30.2334 125.019 26.7667C125.019 23.2999 127.036 20.8047 130.074 20.8047C132.218 20.8047 134.064 21.9966 134.064 23.6291C134.064 24.5236 133.516 25.0572 132.563 25.0572C130.044 25.0572 130.95 21.2135 129.292 21.2135C128.212 21.2135 127.619 22.8301 127.619 24.9935C127.619 28.147 128.903 30.9077 131.045 30.9077C131.202 30.9077 131.421 30.8918 131.625 30.8307V28.8903C131.625 27.5816 130.675 27.0003 129.515 27.6002L129.843 26.5915C129.965 26.2199 130.309 25.9677 130.698 25.9677H132.242C133.336 25.9677 134.223 26.8569 134.223 27.9532V32.3677L134.191 32.3358H134.188Z" fill="white"/>
<path d="M129.385 32.7327C126.689 32.7327 124.807 30.2773 124.807 26.7654C124.807 23.073 126.922 20.5938 130.073 20.5938C132.427 20.5938 134.273 21.9263 134.273 23.6305C134.273 24.6419 133.616 25.2683 132.56 25.2683C131.011 25.2683 130.622 23.9543 130.309 22.8952C130.039 21.9847 129.846 21.4246 129.29 21.4246C128.413 21.4246 127.825 22.858 127.825 24.9922C127.825 27.8246 128.93 30.6941 131.04 30.6941C131.122 30.6941 131.262 30.6888 131.408 30.6622V28.889C131.408 28.3316 131.223 27.9122 130.889 27.7078C130.555 27.5034 130.097 27.5326 129.605 27.7848C129.528 27.8246 129.435 27.814 129.372 27.7582C129.306 27.7025 129.282 27.6122 129.308 27.5326L129.637 26.5239C129.787 26.0647 130.211 25.7541 130.693 25.7541H132.237C133.444 25.7541 134.427 26.7389 134.427 27.952V32.3664C134.427 32.4514 134.376 32.5284 134.297 32.5629C134.22 32.5947 134.127 32.5788 134.067 32.5177L134.162 32.3664L134.067 32.5124C133.709 32.2815 133.307 32.17 132.835 32.17C132.34 32.17 131.821 32.2974 131.273 32.4328C130.667 32.5814 130.042 32.7354 129.377 32.7354L129.385 32.7327ZM128.556 21.2388C126.493 21.8891 125.23 23.9172 125.23 26.7628C125.23 30.0278 126.938 32.308 129.385 32.308C129.999 32.308 130.6 32.1594 131.18 32.0187C131.755 31.878 132.295 31.7453 132.843 31.7453C133.275 31.7453 133.659 31.8276 134.008 31.9921V27.9494C134.008 26.9725 133.214 26.1761 132.239 26.1761H130.696C130.397 26.1761 130.132 26.3673 130.039 26.654L129.851 27.23C130.317 27.0919 130.754 27.1291 131.109 27.3468C131.575 27.6308 131.832 28.1776 131.832 28.889V30.8295C131.832 30.9224 131.771 31.0047 131.681 31.0312C131.445 31.1029 131.201 31.1188 131.04 31.1188C128.651 31.1188 127.402 28.0369 127.402 24.9922C127.402 23.1022 127.828 21.7617 128.554 21.2414L128.556 21.2388ZM129.586 21.037C130.254 21.2149 130.489 22.0059 130.717 22.7731C131.019 23.7898 131.329 24.8409 132.563 24.8409C133.394 24.8409 133.852 24.4083 133.852 23.6252C133.852 22.1838 132.157 21.0132 130.073 21.0132C129.907 21.0132 129.745 21.0211 129.586 21.0344V21.037Z" fill="white"/>
<path d="M87.2925 47.7667H83.0822L83.1908 47.703C83.6144 47.4508 83.8792 46.9491 83.8792 46.4633V36.801C82.6744 37.4911 82.362 39.1237 81.1412 39.1237C80.233 39.1237 79.8252 38.2132 79.8252 36.3789H90.5442C90.5442 38.2158 90.139 39.1237 89.2308 39.1237C87.9783 39.1237 87.7903 37.4142 86.4769 36.7558V46.466C86.4769 46.9518 86.7576 47.4535 87.1813 47.7056L87.2925 47.7693V47.7667Z" fill="white"/>
<path d="M87.2927 47.9792H83.0824C82.9871 47.9792 82.9023 47.9155 82.8785 47.8226C82.8547 47.7297 82.8944 47.6315 82.9765 47.5837L83.085 47.52C83.4319 47.3129 83.6676 46.8882 83.6676 46.4635V37.2046C83.3472 37.4674 83.0956 37.8045 82.8494 38.131C82.4045 38.723 81.9438 39.3335 81.1414 39.3335C79.6162 39.3335 79.6162 37.1064 79.6162 36.3764C79.6162 36.2596 79.7115 36.1641 79.828 36.1641H90.547C90.6635 36.1641 90.7589 36.2596 90.7589 36.3764C90.7589 37.1064 90.7589 39.3335 89.2336 39.3335C88.4366 39.3335 88.0129 38.7336 87.5998 38.1576C87.3377 37.7886 87.0676 37.409 86.6889 37.1303V46.4635C86.6889 46.8749 86.9352 47.3103 87.29 47.52L87.3959 47.581C87.478 47.6288 87.5204 47.727 87.4966 47.8199C87.4727 47.9129 87.388 47.9766 87.2927 47.9766V47.9792ZM83.6861 47.5545H86.6836C86.4241 47.2519 86.2653 46.8564 86.2653 46.4635V36.7534C86.2653 36.6897 86.2944 36.6286 86.3447 36.5888H80.0399C80.0796 38.6646 80.6833 38.9115 81.1414 38.9115C81.7346 38.9115 82.0947 38.431 82.5104 37.8762C82.8441 37.4356 83.2201 36.9339 83.7735 36.618C83.8397 36.5808 83.9192 36.5808 83.9854 36.618C84.0516 36.6551 84.0913 36.7268 84.0913 36.8011V46.4635C84.0913 46.859 83.9377 47.2545 83.6861 47.5545ZM86.6201 36.5888C87.2318 36.9126 87.6104 37.4435 87.9441 37.9107C88.3413 38.4682 88.6564 38.9115 89.2336 38.9115C89.6917 38.9115 90.2955 38.6646 90.3352 36.5888H86.6201Z" fill="white"/>
<path d="M96.1149 42.5559L96.1837 42.5984C96.6789 42.901 97.2455 43.0603 97.8255 43.0603H99.1892C99.2527 43.0603 99.3136 43.0948 99.3454 43.1505L101.202 46.2616C101.437 46.6677 101.89 47.1562 102.298 47.3897L102.923 47.7667H100.701C99.7161 47.7667 98.7284 47.2172 98.2438 46.3863L95.9586 42.5586H95.6144V46.3598C95.6144 46.9411 95.9242 47.4773 96.4273 47.7667H92.2012L92.2197 47.7561C92.7122 47.4747 93.0167 46.9518 93.0167 46.3837V37.7619C93.0167 37.1938 92.7122 36.6682 92.2197 36.3895L92.2012 36.3789H98.882C100.728 36.3789 101.948 37.6026 101.948 39.5006C101.948 41.3986 100.728 42.5586 98.882 42.5586H96.1122L96.1149 42.5559ZM96.6153 42.2268C98.1141 42.2268 99.1574 41.3136 99.3295 39.8643C99.5307 38.1601 98.1141 36.6895 96.4008 36.6895H95.7971C95.6965 36.6895 95.6144 36.7718 95.6144 36.8726V42.2268H96.6153Z" fill="white"/>
<path d="M102.923 47.9766H100.702C99.6398 47.9766 98.5806 47.3793 98.0616 46.49L95.8268 42.7684V46.3573C95.8268 46.8617 96.0968 47.3315 96.5338 47.581C96.6159 47.6288 96.6582 47.727 96.6317 47.8199C96.6053 47.9129 96.5232 47.9766 96.4278 47.9766H92.2017C92.1037 47.9766 92.0216 47.9102 91.9978 47.8173C91.974 47.7244 92.0163 47.6262 92.1011 47.5784C92.5406 47.3262 92.8054 46.8723 92.8054 46.3812V37.7594C92.8054 37.2683 92.5406 36.8118 92.117 36.5702C92.0349 36.5224 91.9846 36.4189 92.0084 36.326C92.0322 36.2331 92.109 36.1641 92.2043 36.1641H98.8852C100.847 36.1641 102.163 37.5046 102.163 39.4981C102.163 41.4916 100.845 42.7684 98.8852 42.7684H97.1481C97.3679 42.8215 97.5956 42.8481 97.826 42.8481H99.1897C99.3274 42.8481 99.4571 42.9224 99.5286 43.0392L101.385 46.1503C101.613 46.5484 102.052 46.9997 102.404 47.2041L103.035 47.5837C103.117 47.6315 103.154 47.7297 103.13 47.8226C103.103 47.9128 103.021 47.9766 102.926 47.9766H102.923ZM96.4596 42.9808L98.4271 46.275C98.8719 47.0395 99.7855 47.5518 100.702 47.5518H102.161C101.748 47.305 101.282 46.8192 101.019 46.3653L99.1658 43.2569L97.8286 43.2701C97.3546 43.2701 96.8912 43.1693 96.4596 42.9808ZM92.7948 47.5545H95.8479C95.5673 47.2253 95.4057 46.8033 95.4057 46.3573V42.5561C95.4057 42.4897 95.4375 42.4313 95.4825 42.3915C95.4349 42.3517 95.4057 42.2933 95.4057 42.2269V36.8728C95.4057 36.7613 95.4534 36.6605 95.5275 36.5888H92.7922C93.0729 36.9126 93.2317 37.3267 93.2317 37.7594V46.3812C93.2317 46.8165 93.0729 47.2333 92.7948 47.5518V47.5545ZM97.4288 42.3464H98.8852C100.62 42.3464 101.742 41.2288 101.742 39.5008C101.742 37.7727 100.622 36.5914 98.8852 36.5914H97.2302C97.8286 36.7534 98.3741 37.0878 98.7951 37.5603C99.375 38.216 99.6398 39.0442 99.5392 39.8963C99.3883 41.1651 98.5886 42.0677 97.4288 42.3517V42.3464ZM95.8241 42.0172H96.6158C98.0007 42.0172 98.9619 41.1837 99.1208 39.8432C99.2056 39.1159 98.9778 38.4045 98.48 37.839C97.9531 37.2444 97.1958 36.902 96.404 36.902H95.8003L95.8294 42.0172H95.8241Z" fill="white"/>
<path d="M103.905 37.7792C103.905 37.2616 103.54 36.6298 103.09 36.375H107.316C106.868 36.6298 106.5 37.2616 106.5 37.7792V43.9669C106.5 45.756 107.689 47.1045 109.458 47.1045C111.32 47.1045 112.509 45.5994 112.509 43.8102V39.794C112.509 38.3977 111.373 37.3439 110.184 36.6988C110.025 36.6113 110.083 36.375 110.266 36.375H113.234C113.372 36.375 113.459 36.5263 113.38 36.6404C113.091 37.0678 112.837 37.8721 112.837 38.6499V43.497C112.837 46.1488 111.052 47.922 108.362 47.922C105.672 47.922 103.903 46.1488 103.903 43.497V37.7792H103.905Z" fill="white"/>
<path d="M108.365 48.1332C105.572 48.1332 103.694 46.2697 103.694 43.4984V37.7807C103.694 37.3374 103.371 36.7799 102.987 36.5596C102.905 36.5118 102.863 36.4136 102.886 36.3207C102.91 36.2278 102.995 36.1641 103.09 36.1641H107.317C107.412 36.1641 107.497 36.2278 107.52 36.3207C107.544 36.4136 107.505 36.5118 107.42 36.5596C107.036 36.7773 106.713 37.3374 106.713 37.7807V43.9683C106.713 45.691 107.841 46.8935 109.459 46.8935C111.077 46.8935 112.297 45.5981 112.297 43.8117V39.7954C112.297 38.3115 110.91 37.3347 110.084 36.8861C109.925 36.8011 109.848 36.6259 109.893 36.4534C109.935 36.2809 110.086 36.1641 110.266 36.1641H113.235C113.378 36.1641 113.51 36.2437 113.576 36.3685C113.643 36.4932 113.635 36.6419 113.555 36.7587C113.312 37.1197 113.049 37.8629 113.049 38.6487V43.4958C113.049 46.2671 111.167 48.1305 108.362 48.1305L108.365 48.1332ZM103.652 36.5861C103.932 36.9259 104.118 37.3745 104.118 37.778V43.4958C104.118 46.0547 105.786 47.7085 108.365 47.7085C109.363 47.7085 110.232 47.4483 110.923 46.9838C110.491 47.1988 109.996 47.3182 109.461 47.3182C107.626 47.3182 106.292 45.9087 106.292 43.9683V37.7807C106.292 37.3772 106.477 36.9286 106.758 36.5888H103.654L103.652 36.5861ZM110.417 36.5861C111.191 37.0294 112.3 37.8523 112.628 39.076V38.6487C112.628 37.9293 112.845 37.0958 113.166 36.5861H110.42H110.417Z" fill="white"/>
<path d="M114.84 39.3885C114.84 37.5543 116.357 36.2031 118.923 36.2031C121.317 36.2031 123.178 37.395 123.178 39.0275C123.178 39.9221 122.614 40.4556 121.677 40.4556C119.143 40.4556 120.051 36.5827 118.142 36.5827C117.39 36.5827 117.093 37.1959 117.093 37.8834C117.093 41.021 123.337 41.098 123.337 44.6285C123.337 46.5264 121.507 47.9227 118.926 47.9227C116.532 47.9227 114.684 46.7468 114.684 45.1143C114.684 44.2197 115.232 43.6861 116.169 43.6861C118.703 43.6861 117.798 47.5139 119.739 47.5139C120.506 47.5139 121.1 46.9007 121.1 45.961C121.1 42.8553 114.84 43.0915 114.84 39.3885Z" fill="white"/>
<path d="M118.923 48.1338C116.386 48.1338 114.472 46.8358 114.472 45.113C114.472 44.1017 115.123 43.4725 116.169 43.4725C117.673 43.4725 118.099 44.7202 118.444 45.7209C118.78 46.7004 119.021 47.3003 119.738 47.3003C120.416 47.3003 120.89 46.7482 120.89 45.9598C120.89 44.606 119.527 43.9185 118.084 43.1912C116.466 42.3762 114.631 41.4525 114.631 39.3873C114.631 37.3221 116.357 35.9922 118.926 35.9922C121.494 35.9922 123.393 37.2982 123.393 39.0289C123.393 40.0403 122.736 40.6694 121.679 40.6694C120.17 40.6694 119.746 39.4006 119.407 38.3839C119.079 37.3991 118.843 36.7965 118.142 36.7965C117.44 36.7965 117.305 37.4787 117.305 37.8875C117.305 39.2838 118.7 40.0456 120.178 40.8526C121.833 41.7551 123.546 42.6895 123.546 44.6326C123.546 46.5757 121.603 48.1391 118.923 48.1391V48.1338ZM116.169 43.8973C115.346 43.8973 114.893 44.33 114.893 45.113C114.893 46.5942 116.624 47.7091 118.923 47.7091C119.09 47.7091 119.254 47.7038 119.413 47.6905C118.608 47.5153 118.319 46.6739 118.041 45.8589C117.697 44.8502 117.369 43.8973 116.166 43.8973H116.169ZM117.395 36.6054C115.933 37.0062 115.049 38.0096 115.049 39.3873C115.049 41.1897 116.685 42.0152 118.269 42.8116C119.762 43.5655 121.309 44.3432 121.309 45.9598C121.309 46.642 121.012 47.2021 120.543 47.4968C122.1 47.0588 123.123 45.9837 123.123 44.6273C123.123 42.9363 121.523 42.063 119.974 41.2189C118.452 40.3907 116.881 39.5306 116.881 37.8822C116.881 37.3009 117.067 36.8576 117.395 36.6054ZM118.547 36.4249C119.272 36.6425 119.543 37.4548 119.805 38.2432C120.146 39.2705 120.472 40.242 121.677 40.242C122.498 40.242 122.969 39.7987 122.969 39.0263C122.969 37.5371 121.229 36.4143 118.923 36.4143C118.796 36.4143 118.669 36.4169 118.547 36.4249Z" fill="white"/>
<path d="M131.83 47.7654H127.62C128.059 47.5159 128.417 46.8974 128.417 46.3904V37.0386C128.417 36.9378 128.3 36.8714 128.218 36.9298C127.175 37.6757 126.831 39.1224 125.682 39.1224C124.797 39.1224 124.387 38.257 124.368 36.5104C124.368 36.4387 124.426 36.375 124.495 36.375H134.957C135.029 36.375 135.087 36.4387 135.084 36.5104C135.066 38.257 134.656 39.1224 133.771 39.1224C132.585 39.1224 132.354 37.5828 131.211 36.8634C131.128 36.8103 131.017 36.8767 131.017 36.9749V46.4116C131.017 46.9611 131.311 47.4681 131.785 47.7389L131.83 47.7654Z" fill="white"/>
<path d="M131.833 47.9766H127.623C127.527 47.9766 127.443 47.9129 127.419 47.8199C127.395 47.727 127.435 47.6288 127.519 47.581C127.893 47.3687 128.211 46.8219 128.211 46.3892V37.2046C127.893 37.4674 127.639 37.8045 127.392 38.131C126.947 38.723 126.487 39.3335 125.684 39.3335C124.191 39.3335 124.167 37.2099 124.159 36.5118C124.159 36.4189 124.196 36.3286 124.26 36.2649C124.323 36.1986 124.408 36.1641 124.498 36.1641H134.96C135.05 36.1641 135.135 36.2012 135.199 36.2649C135.265 36.3313 135.299 36.4215 135.299 36.5118C135.291 37.2099 135.267 39.3335 133.774 39.3335C132.98 39.3335 132.553 38.7363 132.14 38.1576C131.878 37.7886 131.608 37.409 131.229 37.133V46.4131C131.229 46.8856 131.483 47.3236 131.891 47.5571L131.936 47.5837C132.018 47.6315 132.061 47.7297 132.034 47.8226C132.01 47.9155 131.926 47.9792 131.83 47.9792L131.833 47.9766ZM128.181 47.5518H131.235C130.964 47.2386 130.808 46.8351 130.808 46.4078V36.971C130.808 36.8463 130.877 36.7321 130.986 36.6711C131.094 36.61 131.224 36.6153 131.325 36.679C131.841 37.0055 132.183 37.4833 132.484 37.9054C132.882 38.4629 133.197 38.9062 133.774 38.9062C134.229 38.9062 134.838 38.6646 134.876 36.5835H124.583C124.623 38.6619 125.229 38.9062 125.684 38.9062C126.278 38.9062 126.638 38.4257 127.056 37.8709C127.339 37.494 127.662 37.0639 128.099 36.7507C128.2 36.679 128.332 36.6684 128.446 36.7268C128.56 36.7852 128.632 36.902 128.632 37.0294V46.3812C128.632 46.7741 128.452 47.2121 128.181 47.5439V47.5518Z" fill="white"/>
<path d="M140.907 20.9727H141.283L145.369 31.0916C145.557 31.5614 145.993 32.0153 146.446 32.2516L146.682 32.3604H141.923L142.127 32.2675C142.58 32.0313 142.739 31.5614 142.564 31.0916L141.659 28.8538C141.592 28.6893 141.431 28.5804 141.254 28.5804H138.073L137.917 28.9574C137.576 29.7776 137.811 30.8952 138.46 31.6543C138.698 31.9304 138.481 32.3631 138.118 32.3631H136.381C135.997 32.3631 135.809 31.9118 136.064 31.6251C136.538 31.0916 136.903 30.5448 137.136 30.0112L140.907 20.9753V20.9727ZM141.179 27.6646L140.242 25.3473C140.096 24.9836 139.585 24.9809 139.434 25.342L138.471 27.6593C138.351 27.9487 138.561 28.2672 138.873 28.2672H140.774C141.084 28.2672 141.296 27.9513 141.179 27.6646Z" fill="white"/>
<path d="M146.682 32.5742H141.924C141.826 32.5742 141.738 32.5052 141.717 32.407C141.696 32.3088 141.744 32.2105 141.834 32.1681L142.038 32.0725C142.379 31.8973 142.506 31.5469 142.366 31.162L141.463 28.9322C141.428 28.8473 141.346 28.7916 141.254 28.7916H138.216L138.113 29.0384C137.806 29.7737 138.021 30.8143 138.619 31.5151C138.781 31.7035 138.815 31.961 138.712 32.1893C138.603 32.4256 138.375 32.5742 138.119 32.5742H136.379C136.122 32.5742 135.897 32.4282 135.791 32.1946C135.682 31.9531 135.727 31.6823 135.905 31.4832C136.368 30.9629 136.718 30.44 136.943 29.925L140.714 20.8918C140.745 20.8122 140.822 20.7617 140.909 20.7617H141.285C141.37 20.7617 141.45 20.8148 141.481 20.8944L145.567 31.0134C145.729 31.4222 146.123 31.8442 146.547 32.0646L146.775 32.1707C146.865 32.2132 146.912 32.3114 146.891 32.4096C146.87 32.5079 146.783 32.5769 146.685 32.5769L146.682 32.5742ZM142.604 32.1495H145.917C145.586 31.8761 145.313 31.5257 145.173 31.17L141.143 21.1864H141.05L139.466 24.9797C139.572 24.9054 139.699 24.8629 139.84 24.8629C139.84 24.8629 139.84 24.8629 139.842 24.8629C140.11 24.8629 140.34 25.0195 140.441 25.2664L141.378 27.5838C141.46 27.7829 141.436 28.0111 141.315 28.1916C141.267 28.2633 141.206 28.3217 141.137 28.3668H141.256C141.521 28.3668 141.757 28.5261 141.857 28.773L142.763 31.0107C142.917 31.4301 142.85 31.8442 142.607 32.1495H142.604ZM137.562 29.5348L137.332 30.0896C137.088 30.6497 136.715 31.2098 136.223 31.7646C136.156 31.8389 136.14 31.9345 136.18 32.0221C136.199 32.0619 136.252 32.1522 136.381 32.1522H138.121C138.23 32.1522 138.301 32.0805 138.33 32.0141C138.346 31.977 138.378 31.8814 138.301 31.7938C137.756 31.1567 137.491 30.302 137.562 29.5375V29.5348ZM138.232 27.9315L138.05 28.3722C138.05 28.3722 138.068 28.3722 138.076 28.3722H138.51C138.442 28.3244 138.381 28.2633 138.333 28.1916C138.28 28.112 138.246 28.0244 138.232 27.9342V27.9315ZM139.837 25.2876C139.8 25.2876 139.681 25.2982 139.628 25.4283L138.664 27.7457C138.635 27.8174 138.643 27.8943 138.685 27.9581C138.728 28.0218 138.796 28.0589 138.873 28.0589H140.777C140.854 28.0589 140.923 28.0218 140.965 27.9581C141.007 27.8943 141.015 27.8174 140.986 27.7457L140.049 25.4283C139.996 25.2956 139.879 25.2982 139.84 25.2876H139.837Z" fill="white"/>
<path d="M131.86 6.72656C131.587 6.72656 131.373 6.79823 131.222 6.94423C131.071 7.09023 130.994 7.29462 130.994 7.55742C130.994 7.82021 131.068 8.02992 131.219 8.17326C131.37 8.31395 131.569 8.38562 131.818 8.38562C131.897 8.38562 131.974 8.38031 132.048 8.36704C132.122 8.35377 132.188 8.33519 132.249 8.31129V8.02992C132.17 8.05646 132.096 8.07504 132.032 8.08566C131.969 8.09628 131.908 8.10159 131.849 8.10159C131.685 8.10159 131.556 8.05646 131.463 7.96621C131.37 7.87596 131.322 7.73792 131.322 7.55211C131.322 7.3663 131.37 7.23357 131.465 7.14597C131.561 7.05572 131.701 7.01325 131.887 7.01325C131.953 7.01325 132.014 7.0159 132.072 7.02387C132.13 7.03183 132.188 7.04245 132.249 7.05837V6.77965C132.188 6.76107 132.125 6.7478 132.064 6.73983C132 6.73187 131.934 6.72656 131.863 6.72656H131.86Z" fill="white"/>
<path d="M133.038 6.73389C132.914 6.50295 132.736 6.32245 132.511 6.19503C132.286 6.06761 132.021 6.00391 131.72 6.00391C131.418 6.00391 131.153 6.06761 130.928 6.19503C130.703 6.32245 130.525 6.50295 130.401 6.73389C130.276 6.96483 130.213 7.23559 130.213 7.54351C130.213 7.85143 130.276 8.12219 130.401 8.35313C130.525 8.58407 130.703 8.76458 130.928 8.89199C131.153 9.01941 131.418 9.08312 131.72 9.08312C132.021 9.08312 132.284 9.01941 132.511 8.89199C132.739 8.76458 132.914 8.58407 133.038 8.35313C133.163 8.12219 133.226 7.85143 133.226 7.54351C133.226 7.23559 133.163 6.96483 133.038 6.73389ZM132.816 8.22572C132.715 8.4195 132.57 8.56815 132.384 8.67433C132.199 8.78051 131.976 8.8336 131.722 8.8336C131.468 8.8336 131.246 8.78051 131.058 8.67433C130.872 8.56815 130.727 8.4195 130.626 8.22572C130.525 8.03194 130.472 7.80631 130.472 7.54351C130.472 7.28072 130.523 7.05509 130.626 6.86131C130.727 6.66753 130.872 6.51888 131.058 6.4127C131.243 6.30652 131.465 6.25343 131.722 6.25343C131.979 6.25343 132.199 6.30652 132.384 6.4127C132.57 6.51888 132.715 6.66753 132.816 6.86131C132.916 7.05509 132.969 7.28072 132.969 7.54351C132.969 7.80631 132.919 8.03194 132.816 8.22572Z" fill="white"/>
</svg>
